<svg width="18" height="19" viewBox="0 0 18 19" fill="none" xmlns="http://www.w3.org/2000/svg">
<path d="M3 10.5435H7.5C7.69892 10.5435 7.88968 10.4638 8.03033 10.3219C8.17099 10.1799 8.25 9.98749 8.25 9.78681V3.73347C8.25 3.53279 8.17099 3.34033 8.03033 3.19843C7.88968 3.05653 7.69892 2.97681 7.5 2.97681H3C2.80109 2.97681 2.61032 3.05653 2.46967 3.19843C2.32902 3.34033 2.25 3.53279 2.25 3.73347V9.78681C2.25 9.98749 2.32902 10.1799 2.46967 10.3219C2.61032 10.4638 2.80109 10.5435 3 10.5435ZM2.25 15.8401C2.25 16.0408 2.32902 16.2333 2.46967 16.3752C2.61032 16.5171 2.80109 16.5968 3 16.5968H7.5C7.69892 16.5968 7.88968 16.5171 8.03033 16.3752C8.17099 16.2333 8.25 16.0408 8.25 15.8401V12.8135C8.25 12.6128 8.17099 12.4203 8.03033 12.2784C7.88968 12.1365 7.69892 12.0568 7.5 12.0568H3C2.80109 12.0568 2.61032 12.1365 2.46967 12.2784C2.32902 12.4203 2.25 12.6128 2.25 12.8135V15.8401ZM9.75 15.8401C9.75 16.0408 9.82902 16.2333 9.96967 16.3752C10.1103 16.5171 10.3011 16.5968 10.5 16.5968H15C15.1989 16.5968 15.3897 16.5171 15.5303 16.3752C15.671 16.2333 15.75 16.0408 15.75 15.8401V10.5435C15.75 10.3428 15.671 10.1503 15.5303 10.0084C15.3897 9.86653 15.1989 9.78681 15 9.78681H10.5C10.3011 9.78681 10.1103 9.86653 9.96967 10.0084C9.82902 10.1503 9.75 10.3428 9.75 10.5435V15.8401ZM10.5 8.27347H15C15.1989 8.27347 15.3897 8.19375 15.5303 8.05185C15.671 7.90995 15.75 7.71749 15.75 7.51681V3.73347C15.75 3.53279 15.671 3.34033 15.5303 3.19843C15.3897 3.05653 15.1989 2.97681 15 2.97681H10.5C10.3011 2.97681 10.1103 3.05653 9.96967 3.19843C9.82902 3.34033 9.75 3.53279 9.75 3.73347V7.51681C9.75 7.71749 9.82902 7.90995 9.96967 8.05185C10.1103 8.19375 10.3011 8.27347 10.5 8.27347Z" fill="#B4CAD1"/>
</svg>
