<svg width="18" height="19" viewBox="0 0 18 19" fill="none" xmlns="http://www.w3.org/2000/svg">
<path d="M3.375 17.1184H10.125C10.4233 17.1181 10.7092 16.9984 10.9202 16.7856C11.1311 16.5728 11.2497 16.2843 11.25 15.9834V14.2809H10.125V15.9834H3.375V2.36333H10.125V4.06584H11.25V2.36333C11.2497 2.06241 11.1311 1.77389 10.9202 1.5611C10.7092 1.34831 10.4233 1.22863 10.125 1.22833H3.375C3.07672 1.22863 2.79075 1.34831 2.57983 1.5611C2.36892 1.77389 2.2503 2.06241 2.25 2.36333V15.9834C2.2503 16.2843 2.36892 16.5728 2.57983 16.7856C2.79075 16.9984 3.07672 17.1181 3.375 17.1184Z" fill="#DD0000"/>
<path d="M11.5796 11.7759L13.5967 9.74085H5.625V8.60585H13.5967L11.5796 6.57079L12.375 5.76834L15.75 9.17335L12.375 12.5784L11.5796 11.7759Z" fill="#DD0000"/>
</svg>
