<svg width="18" height="18" viewBox="0 0 18 18" fill="none" xmlns="http://www.w3.org/2000/svg">
<path d="M3.15 0C1.413 0 0 1.413 0 3.15C0 4.572 0.954 5.7627 2.25 6.1533V12.5973C2.2491 12.7584 2.2743 14.2002 3.3066 15.2352C3.9438 15.876 4.797 16.2 5.841 16.2V18L9.441 15.3L5.841 12.6V14.4C4.2003 14.4 4.0554 13.0194 4.05 12.6V6.1533C5.346 5.7627 6.3 4.572 6.3 3.15C6.3 1.413 4.8861 0 3.15 0ZM3.15 4.5C2.4057 4.5 1.8 3.8943 1.8 3.15C1.8 2.4057 2.4057 1.8 3.15 1.8C3.8943 1.8 4.5 2.4057 4.5 3.15C4.5 3.8943 3.8943 4.5 3.15 4.5ZM14.85 11.8467V5.3973C14.8455 3.9519 13.8807 1.8 11.241 1.8V0L7.641 2.7L11.241 5.4V3.6C12.8871 3.6 13.0419 4.9851 13.05 5.4V11.8467C11.754 12.2373 10.8 13.428 10.8 14.85C10.8 16.587 12.213 18 13.95 18C15.687 18 17.1 16.587 17.1 14.85C17.1 13.428 16.146 12.2373 14.85 11.8467ZM13.95 16.2C13.2057 16.2 12.6 15.5943 12.6 14.85C12.6 14.1057 13.2057 13.5 13.95 13.5C14.6943 13.5 15.3 14.1057 15.3 14.85C15.3 15.5943 14.6943 16.2 13.95 16.2Z" fill="#B4CAD1"/>
</svg>
