<svg width="251" height="171" viewBox="0 0 251 171" fill="none" xmlns="http://www.w3.org/2000/svg">
<path d="M82.1596 9.94791H23.1707V102.395H82.1596V9.94791Z" fill="#DBDBDB"/>
<path d="M51.295 13.651H26.3859V54.7707H51.295V13.651Z" fill="white"/>
<path d="M78.9446 13.651H54.0355V54.7707H78.9446V13.651Z" fill="white"/>
<path d="M51.295 57.5718H26.3859V98.6915H51.295V57.5718Z" fill="white"/>
<path d="M78.9446 57.5718H54.0355V98.6915H78.9446V57.5718Z" fill="white"/>
<path d="M37.144 9.94791H23.1707V142.209H37.144V9.94791Z" fill="#EBEBEB"/>
<path d="M34.4922 16.2346L34.5987 30.5349L34.6386 44.8352L34.714 73.4359L34.6386 102.037L34.6031 116.337L34.4922 130.637L34.3858 116.337L34.3459 102.037L34.2705 73.4359L34.3459 44.8352L34.3858 30.5349L34.4922 16.2346Z" fill="white"/>
<path d="M28.0799 19.5525L28.1863 32.3208L28.2484 45.0891L28.2972 70.6257L28.2484 96.1668L28.1863 108.935L28.0799 121.703L27.969 108.935L27.9069 96.1668L27.8582 70.6257L27.9069 45.0891L27.969 32.3208L28.0799 19.5525Z" fill="white"/>
<path d="M31.2859 22.5666L31.3924 37.5196L31.4323 52.4681L31.5077 82.3741L31.4323 112.276L31.3924 127.229L31.2859 142.177L31.1751 127.229L31.1396 112.276L31.0642 82.3741L31.1396 52.4681L31.1795 37.5196L31.2859 22.5666Z" fill="white"/>
<path d="M25.6895 16.9915L25.8003 32.638L25.8402 48.2845L25.9112 79.5821L25.8402 110.88L25.8003 126.531L25.6895 142.177L25.583 126.531L25.5431 110.88L25.4722 79.5821L25.5431 48.2845L25.583 32.638L25.6895 16.9915Z" fill="white"/>
<path d="M68.1863 142.209H82.1597L82.1597 9.94791H68.1863L68.1863 142.209Z" fill="#EBEBEB"/>
<path d="M70.8338 16.2346L70.9447 30.5349L70.9846 44.8352L71.0555 73.4359L70.9846 102.037L70.9447 116.337L70.8338 130.637L70.7274 116.337L70.6874 102.037L70.6121 73.4359L70.6874 44.8352L70.7274 30.5349L70.8338 16.2346Z" fill="white"/>
<path d="M77.2505 19.5525L77.357 32.3208L77.419 45.0891L77.4723 70.6257L77.4235 96.1668L77.3614 108.935L77.2505 121.703L77.1441 108.935L77.082 96.1668L77.0288 70.6257L77.082 45.0891L77.1441 32.3208L77.2505 19.5525Z" fill="white"/>
<path d="M74.0442 22.5666L74.1507 37.5196L74.1906 52.4681L74.266 82.3741L74.1906 112.276L74.1507 127.229L74.0442 142.177L73.9334 127.229L73.8935 112.276L73.8225 82.3741L73.8979 52.4681L73.9378 37.5196L74.0442 22.5666Z" fill="white"/>
<path d="M79.6363 16.9915L79.7427 32.638L79.7826 48.2845L79.858 79.5821L79.7826 110.88L79.7471 126.531L79.6363 142.177L79.5299 126.531L79.4899 110.88L79.4146 79.5821L79.4899 48.2845L79.5299 32.638L79.6363 16.9915Z" fill="white"/>
<path d="M147.903 50.9791C157.085 41.5941 157.085 26.378 147.903 16.993C138.721 7.60804 123.834 7.60805 114.652 16.993C105.47 26.378 105.47 41.5941 114.652 50.9791C123.834 60.3641 138.721 60.3641 147.903 50.9791Z" fill="#EBEBEB"/>
<path opacity="0.5" d="M138.439 56.8783C134.928 58.0227 131.202 58.307 127.563 57.7083C123.925 57.1095 120.475 55.6446 117.492 53.4316C114.509 51.2187 112.078 48.3198 110.393 44.9691C108.709 41.6184 107.819 37.9098 107.796 34.1429C107.773 30.3759 108.617 26.6561 110.259 23.2839C111.902 19.9117 114.298 16.9817 117.252 14.7303C120.207 12.479 123.639 10.9695 127.27 10.3238C130.901 9.67805 134.63 9.91417 138.155 11.0131C133.412 9.73204 128.377 10.2409 123.971 12.4465C119.565 14.652 116.085 18.4065 114.167 23.0218C112.25 27.6371 112.024 32.804 113.531 37.5758C115.038 42.3475 118.177 46.4044 122.372 49.0028C126.568 51.6013 131.539 52.5673 136.375 51.7239C141.211 50.8804 145.587 48.284 148.702 44.4104C151.818 40.5369 153.463 35.6456 153.336 30.6331C153.209 25.6206 151.32 20.8226 148.013 17.1185C150.836 20.0426 152.878 23.6578 153.944 27.6186C155.01 31.5793 155.065 35.7533 154.102 39.7418C153.14 43.7302 151.193 47.3998 148.448 50.4C145.703 53.4001 142.25 55.6306 138.421 56.8783H138.439Z" fill="#DBDBDB"/>
<path d="M122.319 31.9219C122.52 32.5597 122.531 33.2441 122.351 33.8884C122.171 34.5327 121.808 35.1078 121.308 35.5411C120.808 35.9744 120.193 36.2464 119.542 36.3225C118.891 36.3986 118.232 36.2755 117.649 35.9688C117.066 35.662 116.586 35.1854 116.268 34.5993C115.95 34.0132 115.81 33.344 115.865 32.6763C115.919 32.0086 116.167 31.3725 116.575 30.8485C116.984 30.3245 117.535 29.9361 118.16 29.7326C118.995 29.4604 119.903 29.5379 120.682 29.9483C121.462 30.3587 122.051 31.0685 122.319 31.9219Z" fill="#C7C7C7"/>
<path d="M143.707 24.9327C143.907 25.5706 143.917 26.2549 143.737 26.8988C143.556 27.5428 143.192 28.1174 142.692 28.5501C142.192 28.9828 141.577 29.254 140.926 29.3295C140.274 29.405 139.616 29.2813 139.033 28.9741C138.451 28.6669 137.971 28.19 137.654 27.6038C137.336 27.0176 137.196 26.3484 137.251 25.6808C137.307 25.0133 137.554 24.3774 137.963 23.8538C138.372 23.3301 138.923 22.9421 139.548 22.7389C139.962 22.6035 140.398 22.5529 140.831 22.59C141.264 22.627 141.686 22.7509 142.072 22.9546C142.459 23.1584 142.802 23.4379 143.082 23.7773C143.363 24.1167 143.575 24.5093 143.707 24.9327Z" fill="#C7C7C7"/>
<path d="M134.306 26.927C134.515 27.5674 134.598 28.2438 134.549 28.9171C134.5 29.5904 134.321 30.2471 134.022 30.8491C133.724 31.4511 133.311 31.9865 132.808 32.4241C132.305 32.8618 131.722 33.193 131.093 33.3985C130.463 33.6041 129.801 33.6799 129.143 33.6215C128.485 33.5632 127.844 33.3719 127.259 33.0587C126.674 32.7455 126.156 32.3167 125.734 31.7971C125.312 31.2775 124.996 30.6774 124.803 30.0318L134.306 26.927Z" fill="#C7C7C7"/>
<path d="M134.208 30.3128C133.94 31.0243 133.519 31.6652 132.976 32.1884C132.434 32.7116 131.783 33.1038 131.073 33.336C130.362 33.5682 129.61 33.6346 128.871 33.5303C128.132 33.426 127.425 33.1536 126.803 32.7332C127.551 31.4927 128.709 30.5668 130.067 30.1229C131.426 29.679 132.895 29.7464 134.208 30.3128Z" fill="#DBDBDB"/>
<path d="M185.565 85.647C187.777 76.3582 182.203 66.9953 173.115 64.7343C164.027 62.4734 154.867 68.1706 152.655 77.4595C150.443 86.7483 156.017 96.1112 165.105 98.3721C174.193 100.633 183.353 94.9359 185.565 85.647Z" fill="#EBEBEB"/>
<path opacity="0.5" d="M164.807 98.2881C162.237 97.5984 159.862 96.3002 157.873 94.4985C155.885 92.6967 154.339 90.4421 153.361 87.9167C152.383 85.3914 152 82.6663 152.243 79.9617C152.486 77.2571 153.349 74.6489 154.761 72.3481C156.173 70.0472 158.094 68.1182 160.371 66.717C162.647 65.3158 165.214 64.4818 167.864 64.2824C170.514 64.0829 173.173 64.5236 175.626 65.5689C178.078 66.6142 180.256 68.2347 181.982 70.2993C179.584 67.648 176.33 65.9691 172.819 65.5702C169.307 65.1712 165.773 66.0791 162.863 68.1273C159.953 70.1755 157.863 73.2268 156.975 76.7222C156.088 80.2176 156.462 83.9228 158.03 87.1589C159.598 90.395 162.254 92.9452 165.513 94.3421C168.771 95.7391 172.412 95.8892 175.77 94.765C179.127 93.6408 181.976 91.3175 183.794 88.221C185.612 85.1245 186.277 81.4621 185.667 77.905C186.275 80.7958 186.149 83.7974 185.3 86.624C184.451 89.4506 182.909 92.0081 180.819 94.0529C178.73 96.0976 176.163 97.5616 173.363 98.3054C170.564 99.0491 167.624 99.0478 164.825 98.3017L164.807 98.2881Z" fill="#DBDBDB"/>
<path d="M180.084 80.9464C179.965 81.4118 179.713 81.8306 179.36 82.1498C179.008 82.469 178.571 82.6743 178.105 82.7397C177.638 82.8052 177.163 82.7278 176.74 82.5175C176.316 82.3072 175.963 81.9733 175.726 81.558C175.488 81.1427 175.376 80.6646 175.404 80.1843C175.431 79.7039 175.598 79.2428 175.882 78.8591C176.166 78.4755 176.555 78.1865 177 78.0288C177.445 77.8711 177.926 77.8517 178.381 77.973C178.684 78.0537 178.969 78.1946 179.218 78.3878C179.468 78.581 179.678 78.8226 179.836 79.0987C179.994 79.3749 180.097 79.6803 180.14 79.9973C180.183 80.3143 180.164 80.6368 180.084 80.9464Z" fill="#C7C7C7"/>
<path d="M164.439 76.7537C164.32 77.2207 164.068 77.641 163.714 77.9614C163.361 78.2818 162.923 78.4879 162.455 78.5536C161.988 78.6193 161.511 78.5417 161.087 78.3305C160.662 78.1193 160.308 77.7841 160.07 77.3673C159.832 76.9505 159.72 76.4709 159.749 75.9892C159.778 75.5074 159.946 75.0453 160.232 74.6612C160.518 74.2771 160.909 73.9884 161.355 73.8316C161.802 73.6748 162.284 73.6569 162.741 73.7803C163.043 73.8615 163.327 74.0028 163.576 74.1962C163.825 74.3896 164.035 74.6312 164.193 74.9074C164.35 75.1835 164.453 75.4887 164.495 75.8055C164.538 76.1223 164.519 76.4445 164.439 76.7537Z" fill="#C7C7C7"/>
<path d="M166.049 76.092C166.044 77.1425 166.336 78.1721 166.891 79.0563C167.471 79.8613 168.312 80.4286 169.264 80.6563C170.196 80.96 171.204 80.9036 172.098 80.4977C173.017 80.0227 173.798 79.3101 174.364 78.4308C174.041 79.5235 173.339 80.4582 172.39 81.0597C171.892 81.363 171.335 81.5517 170.758 81.6127C170.184 81.6588 169.606 81.6005 169.051 81.4404C168.501 81.2822 167.979 81.0326 167.508 80.7016C167.036 80.3554 166.645 79.9065 166.364 79.3872C165.843 78.3727 165.73 77.1903 166.049 76.092Z" fill="#C7C7C7"/>
<path d="M180.514 114.673H141.384V170.021H180.514V114.673Z" fill="#EBEBEB"/>
<path d="M182.408 112.62H139.486V114.673H182.408V112.62Z" fill="#DBDBDB"/>
<path d="M195.907 112.62H182.408V114.673H195.907V112.62Z" fill="#EBEBEB"/>
<path d="M193.774 114.673H180.514V170.021H193.774V114.673Z" fill="#DBDBDB"/>
<path d="M176.293 140.296H145.588V122.546H176.293V140.296ZM145.694 140.183H176.191V122.66H145.694V140.183Z" fill="#C7C7C7"/>
<path d="M162.639 127.736H156.661V131.249H162.639V127.736Z" fill="#C7C7C7"/>
<path d="M164.461 131.041H158.372V127.945H164.461V131.041ZM158.483 130.927H164.35V128.058H158.483V130.927Z" fill="#C7C7C7"/>
<path d="M176.293 162.578H145.588V144.829H176.293V162.578ZM145.694 162.465H176.191V144.942H145.694V162.465Z" fill="#C7C7C7"/>
<path d="M162.639 150.019H156.661V153.531H162.639V150.019Z" fill="#C7C7C7"/>
<path d="M164.461 153.323H158.372V150.227H164.461V153.323ZM158.483 153.209H164.35V150.34H158.483V153.209Z" fill="#C7C7C7"/>
<path d="M18.5144 98.5827L12.6918 98.7051L9.7384 98.7594C8.75392 98.7594 7.76057 98.7594 6.77166 98.7821H6.5721V98.5827L6.54993 93.5107V93.2795H6.77166L12.6431 93.3067C14.5987 93.3067 16.5544 93.3566 18.5144 93.3793H18.6342V93.5016C18.6342 94.3583 18.5943 95.215 18.5765 96.0626L18.5144 98.5827ZM18.5144 98.5827L18.4524 96.0172C18.4524 95.1742 18.3991 94.3402 18.3903 93.5107L18.5144 93.6331C16.5544 93.6558 14.5987 93.7056 12.6431 93.7056L6.77166 93.7373L6.99339 93.5107L6.96678 98.5827L6.77166 98.3787C7.7384 98.3787 8.7007 98.3787 9.67188 98.3787L12.5898 98.4331L18.5144 98.5827Z" fill="#EBEBEB"/>
<path d="M11.9644 104.978L6.14179 105.101L3.18835 105.155C2.19943 105.155 1.21052 105.155 0.221607 105.178H0.0220514V104.978L-0.00012207 99.9062V99.6887H0.239346H6.093C8.04866 99.6887 10.0043 99.7385 11.9644 99.7612H12.0841V99.8836C12.0841 100.74 12.0442 101.597 12.0265 102.444L11.9644 104.978ZM11.9644 104.978L11.8979 102.408C11.8979 101.565 11.8491 100.731 11.8402 99.9017L11.9644 100.024C10.0043 100.047 8.04866 100.097 6.093 100.097L0.239346 100.142L0.456641 99.9198L0.434468 104.992L0.239346 104.788C1.20609 104.788 2.16839 104.788 3.13957 104.81L6.05753 104.865L11.9644 104.978Z" fill="#EBEBEB"/>
<path d="M194.151 104.978L188.333 105.101L185.379 105.155C184.39 105.155 183.397 105.155 182.408 105.178H182.213V104.978L182.186 99.9062V99.6887H182.408H188.266C190.226 99.6887 192.182 99.7385 194.137 99.7612H194.262V99.8836C194.262 100.74 194.222 101.597 194.204 102.444L194.151 104.978ZM194.151 104.978L194.089 102.413C194.089 101.57 194.04 100.736 194.031 99.9062L194.151 100.029C192.195 100.051 190.239 100.101 188.279 100.101L182.408 100.128L182.63 99.9062L182.608 104.978L182.408 104.774C183.375 104.774 184.341 104.774 185.313 104.797L188.231 104.851L194.151 104.978Z" fill="#EBEBEB"/>
<path d="M187.601 15.0199L181.783 15.1468L178.829 15.1967C177.84 15.1967 176.847 15.1967 175.858 15.2239H175.663V15.0199L175.636 9.9434V9.71677H175.858L181.729 9.74396C183.685 9.74396 185.645 9.79835 187.601 9.82102H187.725V9.9434C187.725 10.8046 187.69 11.6612 187.667 12.5043L187.601 15.0199ZM187.601 15.0199L187.539 12.459C187.517 11.6114 187.49 10.7774 187.481 9.94793L187.601 10.0703C185.645 10.0703 183.685 10.1428 181.729 10.1474L175.849 10.1746L176.071 9.94793V15.0199L175.871 14.8159C176.838 14.8159 177.805 14.8159 178.776 14.8431L181.694 14.893L187.601 15.0199Z" fill="#EBEBEB"/>
<path d="M194.151 21.4153L188.333 21.5423L185.379 21.5921C184.39 21.5921 183.397 21.5921 182.408 21.6193H182.213V21.4153L182.186 16.3434V16.1167H182.408L188.279 16.1439C190.239 16.1439 192.195 16.1983 194.151 16.221H194.275V16.3434C194.275 17.2046 194.235 18.0612 194.217 18.9043L194.151 21.4153ZM194.151 21.4153L194.089 18.8544C194.089 18.0068 194.04 17.1728 194.031 16.3434L194.151 16.4658C192.195 16.4658 190.239 16.5383 188.279 16.5428L182.408 16.57L182.63 16.3434L182.608 21.4153L182.408 21.2114C183.375 21.2114 184.341 21.2114 185.313 21.2386L188.231 21.2884L194.151 21.4153Z" fill="#EBEBEB"/>
<path d="M18.5144 15.0199L12.6918 15.1468L9.7384 15.1967C8.75392 15.1967 7.76057 15.1967 6.77166 15.2239H6.5721V15.0199L6.54993 9.9434V9.71677H6.77166L12.6564 9.74849C14.612 9.74849 16.5677 9.80289 18.5278 9.82555H18.6475V9.9434C18.6475 10.8046 18.6076 11.6612 18.5898 12.5043L18.5144 15.0199ZM18.5144 15.0199L18.4524 12.459C18.4524 11.6114 18.3991 10.7774 18.3903 9.94793L18.5144 10.0703C16.5544 10.0703 14.5987 10.1428 12.6431 10.1474L6.77166 10.1746L6.99339 9.94793L6.96678 15.0199L6.77166 14.8159C7.7384 14.8159 8.7007 14.8159 9.67188 14.8431L12.5898 14.893L18.5144 15.0199Z" fill="#EBEBEB"/>
<path d="M4.92236 170.021L28.8071 169.912L52.6918 169.871L100.461 169.794L148.231 169.871L172.115 169.912L196 170.021L172.115 170.134L148.231 170.17L100.461 170.247L52.6918 170.17L28.8071 170.134L4.92236 170.021Z" fill="#263238"/>
<path d="M235.119 133.824C234.656 135.557 234.348 137.331 234.201 139.122C234.25 139.213 234.241 139.539 234.201 139.448C234.201 139.739 233.758 139.689 233.758 139.399C233.758 139.213 233.758 139.027 233.758 138.846C232.747 137.558 231.274 136.743 230.081 135.623C229.125 134.746 228.427 133.612 228.068 132.35C227.084 128.874 228.006 125.189 226.822 121.722C225.798 118.735 223.962 116.133 222.41 113.427C220.769 110.562 219.563 107.535 219.438 104.199C219.345 101.629 219.642 98.2065 221.558 96.2801C223.585 94.2405 226.099 95.7725 227.656 97.59C232.166 102.861 234.25 109.556 235.093 116.382C235.536 120.162 236.037 123.965 235.926 127.777C235.856 129.815 235.585 131.841 235.119 133.824Z" fill="#F1C85E"/>
<path d="M234.223 140.514C234.468 136.948 234.427 133.367 234.099 129.808C234.099 129.808 234.099 129.808 234.099 129.771C234.157 126.875 234.379 123.992 234.268 121.096C234.13 117.963 233.713 114.85 233.022 111.795C233.022 111.759 232.96 111.768 232.968 111.795C233.52 114.798 233.849 117.839 233.953 120.892C234.012 122.53 233.999 124.165 233.913 125.796C233.886 126.327 233.838 126.862 233.807 127.401C232.63 119.276 229.757 111.505 225.381 104.616C225.323 104.52 225.159 104.616 225.217 104.72C228.351 109.956 230.674 115.656 232.104 121.617C229.935 117.515 226.667 114.143 224.237 110.2C224.237 110.177 224.192 110.2 224.201 110.222C226.383 114.61 229.966 118.073 232.281 122.392C232.68 124.156 233.004 125.937 233.248 127.723C233.57 130.178 233.745 132.652 233.771 135.129C232.441 132.609 231.079 130.197 230.002 127.532C229.975 127.46 229.873 127.51 229.895 127.578C230.813 130.347 232.05 133.33 233.776 135.691C233.776 137.445 233.736 139.199 233.634 140.949C233.368 145.622 232.583 150.236 232.223 154.891C232.224 154.917 232.234 154.942 232.251 154.961C232.268 154.98 232.291 154.992 232.316 154.995C232.341 154.999 232.367 154.993 232.388 154.978C232.409 154.964 232.425 154.943 232.432 154.918C233.345 150.163 233.944 145.351 234.223 140.514Z" fill="#263238"/>
<path d="M229.368 104.471C229.368 104.439 229.306 104.471 229.319 104.471C230.153 106.832 230.623 109.225 231.226 111.646C231.232 111.666 231.246 111.684 231.265 111.695C231.283 111.707 231.305 111.711 231.326 111.707C231.347 111.703 231.366 111.691 231.379 111.674C231.393 111.657 231.4 111.636 231.399 111.614C231.155 109.207 230.299 106.732 229.368 104.471Z" fill="#263238"/>
<path d="M250.574 114.365C250.018 115.75 249.377 117.098 248.654 118.399C247.15 121.191 245.58 123.748 245.297 127.011C245.172 128.462 245.128 129.921 244.693 131.317C244.3 132.52 243.733 133.657 243.013 134.689C241.385 137.119 239.345 139.222 237.838 141.728C236.266 144.353 235.105 147.213 234.396 150.204C234.356 150.368 234.108 150.327 234.144 150.164C234.146 150.152 234.146 150.139 234.144 150.127C234.14 150.115 234.14 150.103 234.144 150.091C233.904 143.12 234.45 136.099 236.529 129.422C237.447 126.482 238.551 123.605 239.833 120.81C240.946 118.39 242.334 116.06 244.268 114.252C245.536 113.082 248.29 110.871 250.095 112.04C250.982 112.607 250.915 113.495 250.574 114.365Z" fill="#F1C85E"/>
<path d="M243.722 130.166C242.52 132.188 241.196 134.132 239.758 135.986C239.101 136.869 238.427 137.74 237.771 138.624C237.461 139.041 237.11 139.453 236.826 139.902C237.004 139.167 237.181 138.438 237.363 137.703C238.25 134.182 239.088 130.628 240.401 127.242C241.744 123.964 243.326 120.793 245.132 117.756C245.181 117.678 245.053 117.62 245.004 117.697C243.567 120.117 242.104 122.537 240.893 125.089C240.224 126.514 239.641 127.979 239.146 129.477C239.701 126.294 240.477 123.155 241.469 120.085C241.469 120.058 241.438 120.04 241.43 120.085C240.129 123.185 239.315 126.476 239.017 129.835C238.72 130.741 238.45 131.648 238.197 132.554C237.124 136.452 236.179 140.391 235.305 144.339C235.289 141.74 235.509 139.146 235.962 136.588C235.962 136.53 235.886 136.516 235.873 136.588C235.208 139.251 234.985 142.009 235.212 144.747C234.884 146.258 234.562 147.769 234.246 149.28C233.576 152.493 232.756 155.761 232.361 159.025C232.361 159.04 232.367 159.056 232.377 159.068C232.387 159.079 232.401 159.087 232.416 159.09C232.431 159.093 232.447 159.09 232.46 159.082C232.474 159.074 232.484 159.062 232.489 159.047C232.955 157.289 233.239 155.462 233.62 153.685C234.002 151.909 234.401 150.114 234.804 148.337C235.399 145.74 236.019 143.156 236.649 140.573C237.093 139.625 237.891 138.782 238.503 137.989C239.172 137.119 239.833 136.244 240.498 135.36C241.724 133.721 242.821 131.986 243.78 130.17C243.802 130.152 243.744 130.129 243.722 130.166Z" fill="#263238"/>
<path d="M244.015 127.183C242.513 129.141 241.212 131.252 240.135 133.484C240.135 133.511 240.166 133.538 240.184 133.511C241.487 131.421 242.769 129.314 244.073 127.224C244.077 127.188 244.037 127.152 244.015 127.183Z" fill="#263238"/>
<path d="M214.986 120.992C215.873 122.546 216.88 124.414 216.498 126.281C216.259 127.464 215.412 128.425 215.261 129.631C214.915 132.292 217.514 134.05 219.39 135.31C224.073 138.451 230.476 141.248 231.363 147.662C231.394 147.888 231.78 147.829 231.753 147.607C231.755 147.594 231.755 147.58 231.753 147.566C231.753 147.566 231.753 147.566 231.753 147.53C232.368 144.286 232.336 140.948 231.66 137.717C230.964 134.413 229.549 131.444 227.886 128.539C225.066 123.625 222.082 118.594 217.824 114.832C216.645 113.79 214.228 111.918 213.288 114.265C212.348 116.613 213.922 119.075 214.986 120.992Z" fill="#F1C85E"/>
<path d="M219.27 131.39C222.374 134.825 227.31 136.752 229.984 140.6C228.492 134.742 225.671 129.326 221.749 124.79C221.736 124.768 221.73 124.741 221.733 124.715C221.736 124.689 221.747 124.665 221.764 124.645C221.782 124.626 221.805 124.613 221.83 124.608C221.855 124.603 221.881 124.606 221.904 124.618C224.764 127.459 227.05 130.847 228.631 134.59C227.894 131.98 226.924 129.445 225.736 127.016C225.727 126.997 225.726 126.976 225.732 126.957C225.738 126.937 225.751 126.921 225.768 126.911C225.785 126.901 225.806 126.897 225.825 126.902C225.844 126.906 225.862 126.917 225.873 126.934C227.339 129.587 228.387 132.46 228.977 135.446C232.498 144.158 232.827 154.374 232.082 163.548C232.082 163.576 232.071 163.602 232.052 163.622C232.033 163.642 232.007 163.653 231.98 163.653C231.952 163.653 231.927 163.642 231.907 163.622C231.888 163.602 231.878 163.576 231.878 163.548C232.082 156.296 231.966 148.949 230.272 141.883C230.237 141.737 230.197 141.592 230.161 141.429C227.252 137.286 222.339 135.369 219.177 131.435C219.186 131.417 219.243 131.353 219.27 131.39Z" fill="#263238"/>
<path d="M218.552 128.439C220.184 129.966 221.784 131.53 223.43 133.058C223.43 133.058 223.43 133.103 223.43 133.089C221.584 131.821 219.921 130.296 218.49 128.557C218.401 128.471 218.485 128.375 218.552 128.439Z" fill="#263238"/>
<path d="M218.294 121.817C219.737 124.234 221.368 126.527 223.172 128.675C223.172 128.702 223.172 128.743 223.128 128.715C221.106 126.748 219.44 124.431 218.206 121.871C218.202 121.859 218.202 121.847 218.207 121.836C218.211 121.824 218.219 121.815 218.229 121.808C218.239 121.802 218.251 121.799 218.263 121.801C218.275 121.803 218.286 121.808 218.294 121.817Z" fill="#263238"/>
<path d="M225.634 170.021H239.904L237.984 150.395H227.829L225.634 170.021Z" fill="#455A64"/>
<path d="M227.474 153.581H238.299L237.984 150.395H227.829L227.474 153.581Z" fill="#263238"/>
<path d="M226.082 151.351H239.461V148.219H226.082V151.351Z" fill="#455A64"/>
<path d="M86.1383 128.435L96.8247 142.861C98.8824 145.609 100.636 148.054 101.428 149.405C101.428 149.405 101.428 149.405 101.428 149.428C101.648 149.723 101.798 150.066 101.868 150.43C101.868 150.43 101.868 150.453 101.868 150.46C101.492 151.639 80.4909 169.074 79.5559 169.431C78.621 169.788 77.5583 167.101 77.8437 165.758C78.1291 164.415 83.2507 154.064 83.2507 154.064L72.7183 139.534L86.1383 128.435Z" fill="#EB9481"/>
<path d="M94.6319 139.887L96.8247 142.846C98.8824 145.594 100.636 148.039 101.428 149.39C101.428 149.39 101.428 149.39 101.428 149.413C101.611 149.729 101.758 150.065 101.868 150.414C101.868 150.414 101.868 150.437 101.868 150.445C101.492 151.623 80.4909 169.059 79.556 169.416C78.621 169.773 77.5584 167.086 77.8437 165.743C78.1291 164.4 83.2508 154.049 83.2508 154.049L80.9791 151.078L94.6319 139.887Z" fill="#EBEBEB"/>
<path d="M79.5637 169.416C80.4987 169.063 101.489 151.627 101.875 150.445C102.029 149.996 99.7238 146.722 96.825 142.85L96.7311 142.727L83.067 153.822L83.2585 154.053C83.2585 154.053 78.1444 164.415 77.8515 165.747C77.5586 167.078 78.6325 169.776 79.5637 169.416Z" fill="#F1C85E"/>
<path d="M79.1392 168.387C82.6088 165.359 96.8736 153.485 100.542 150.76C100.572 150.737 100.591 150.76 100.561 150.783C97.1815 153.853 82.8266 165.62 79.2031 168.437C79.1017 168.506 79.0679 168.452 79.1392 168.387Z" fill="#263238"/>
<path d="M82.1544 155.039C83.3334 153.615 85.2108 152.422 87.0808 152.552C87.1559 152.552 87.1446 152.66 87.0808 152.683C85.4011 153.35 83.7962 154.199 82.2933 155.216C82.2703 155.225 82.245 155.226 82.2212 155.219C82.1974 155.213 82.1763 155.199 82.1608 155.179C82.1454 155.159 82.1364 155.135 82.1353 155.11C82.1341 155.085 82.1408 155.06 82.1544 155.039Z" fill="#263238"/>
<path d="M81.64 156.494C82.8228 155.07 84.7002 153.876 86.5702 154.007C86.6415 154.007 86.634 154.114 86.5702 154.137C84.8906 154.803 83.2856 155.651 81.7827 156.666C81.7599 156.679 81.7333 156.684 81.7076 156.679C81.6819 156.674 81.6586 156.66 81.6417 156.64C81.6248 156.62 81.6154 156.594 81.6151 156.567C81.6148 156.54 81.6236 156.514 81.64 156.494Z" fill="#263238"/>
<path d="M81.1293 157.948C82.3083 156.524 84.1858 155.327 86.0557 155.457C86.1271 155.457 86.1196 155.569 86.0557 155.592C84.3769 156.259 82.7721 157.107 81.2682 158.121C81.2455 158.132 81.2198 158.135 81.1952 158.129C81.1706 158.124 81.1486 158.11 81.1326 158.09C81.1166 158.07 81.1076 158.045 81.107 158.02C81.1064 157.994 81.1142 157.969 81.1293 157.948Z" fill="#263238"/>
<path d="M96.0325 140.958L81.4072 153.485C81.4072 153.485 64.5778 131.505 60.7816 120.425C58.0818 112.531 70.5443 73.0237 70.5443 73.0237L86.4913 71.9222C86.4913 71.9222 76.1691 109.971 77.3144 113.667C78.7262 118.169 96.0325 140.958 96.0325 140.958Z" fill="#37474F"/>
<path d="M79.7814 149.889C82.0531 147.97 81.3735 148.48 83.6715 146.58C84.798 145.648 92.1763 139.538 93.3741 138.855C93.4004 138.855 93.4305 138.882 93.4117 138.905C92.4917 139.941 85.0045 145.92 83.8667 146.83C81.535 148.687 82.1846 148.127 79.834 149.958C79.8296 149.961 79.8245 149.964 79.8191 149.965C79.8136 149.967 79.808 149.967 79.8024 149.967C79.7968 149.966 79.7914 149.964 79.7865 149.961C79.7817 149.958 79.7774 149.955 79.7739 149.95C79.7705 149.946 79.7679 149.94 79.7664 149.935C79.7649 149.929 79.7645 149.923 79.7652 149.918C79.7659 149.912 79.7677 149.907 79.7705 149.902C79.7733 149.897 79.777 149.892 79.7814 149.889Z" fill="#263238"/>
<path d="M91.1774 138.245C88.4514 134.775 85.8029 131.237 83.2321 127.629C80.6787 124.052 78.1592 120.421 75.8687 116.664C75.3169 115.82 74.8739 114.907 74.5507 113.947C74.2526 112.853 74.214 111.701 74.4381 110.589C74.7948 108.367 75.2492 106.156 75.7035 103.953C76.6197 99.5319 77.661 95.1388 78.8276 90.7738C79.9916 86.414 81.2945 82.0926 82.6726 77.798C82.8415 77.2722 83.0143 76.7426 83.187 76.2129C83.2133 76.1362 83.0931 76.1055 83.0668 76.1823C81.5198 80.4858 80.1305 84.8431 78.8989 89.2541C77.6673 93.665 76.5696 98.085 75.6059 102.514C75.1252 104.748 74.6784 106.991 74.2654 109.246C74.0096 110.342 73.8835 111.465 73.8899 112.592C73.9648 113.574 74.2317 114.531 74.6747 115.405C75.1491 116.345 75.6873 117.249 76.2855 118.111C76.8913 119.042 77.5046 119.971 78.1254 120.897C79.377 122.763 80.6537 124.609 81.9554 126.435C84.5463 130.058 87.2122 133.647 90.0772 137.051C90.4264 137.469 90.7794 137.884 91.1286 138.298C91.1399 138.337 91.2075 138.283 91.1774 138.245Z" fill="#263238"/>
<path d="M86.5064 71.9222C86.5064 71.9222 83.5024 83.0213 80.9041 93.7981C78.0015 87.6575 73.0526 77.0803 71.3892 72.9508L86.5064 71.9222Z" fill="#263238"/>
<path d="M105.472 97.2215L115.002 84.4183C117.225 81.8124 119.219 79.5634 120.357 78.5003C120.363 78.498 120.369 78.498 120.375 78.5003C120.804 78.1165 121.108 77.8671 121.25 77.8632C121.25 77.8632 121.269 77.8632 121.277 77.8632C122.486 78.0129 143.397 95.552 143.922 96.4155C144.448 97.279 142.086 98.8833 140.742 98.8641C139.398 98.8449 128.452 95.7938 128.452 95.7938L118.314 108.601L105.472 97.2215Z" fill="#EB9481"/>
<path d="M121.25 77.8479H121.277C122.486 78.0014 143.397 95.5405 143.922 96.404C144.448 97.2675 142.086 98.8717 140.746 98.8526C139.405 98.8334 128.452 95.7823 128.452 95.7823L126.627 98.3498C123.18 95.4982 116.895 90.2903 113.08 87.0166C114.142 85.4814 115.002 84.4375 115.006 84.4337C117.225 81.8239 119.215 79.5788 120.353 78.5195L120.375 78.5003C120.804 78.082 121.108 77.8517 121.25 77.8479Z" fill="#EBEBEB"/>
<path d="M143.922 96.3963C143.397 95.5328 122.486 77.9937 121.277 77.844C120.819 77.7788 118.141 80.7416 115.006 84.4183L114.908 84.5373L128.291 96.0049L128.475 95.7669C128.475 95.7669 139.417 98.8372 140.765 98.8372C142.113 98.8372 144.456 97.256 143.922 96.3963Z" fill="#F1C85E"/>
<path d="M143.021 97.0257C139.428 94.1588 125.189 82.2422 121.847 79.1297C121.821 79.1029 121.847 79.0837 121.866 79.1067C125.49 81.87 139.634 93.9017 143.07 96.9682C143.141 97.0296 143.096 97.0871 143.021 97.0257Z" fill="#263238"/>
<path d="M129.624 96.6765C128.024 95.7784 126.5 94.1358 126.244 92.2361C126.244 92.1631 126.338 92.1516 126.372 92.2015C127.346 93.7502 128.479 95.1886 129.751 96.4923C129.769 96.5116 129.78 96.5367 129.782 96.5632C129.784 96.5897 129.776 96.6161 129.761 96.6378C129.746 96.6595 129.724 96.6752 129.699 96.6823C129.674 96.6893 129.648 96.6873 129.624 96.6765Z" fill="#263238"/>
<path d="M131.118 96.8991C129.519 96.001 127.998 94.3584 127.739 92.4587C127.739 92.3857 127.829 92.3742 127.863 92.4279C128.837 93.9755 129.97 95.4126 131.242 96.7149C131.256 96.7347 131.263 96.7585 131.264 96.7829C131.264 96.8073 131.257 96.8312 131.243 96.8513C131.23 96.8714 131.21 96.8868 131.188 96.8953C131.166 96.9039 131.141 96.9052 131.118 96.8991Z" fill="#263238"/>
<path d="M132.613 97.1217C131.017 96.2236 129.492 94.581 129.233 92.6851C129.233 92.6083 129.327 92.5968 129.361 92.6505C130.335 94.1988 131.467 95.6359 132.74 96.9374C132.755 96.9576 132.763 96.9819 132.763 97.0068C132.763 97.0318 132.756 97.0562 132.742 97.0766C132.727 97.097 132.707 97.1123 132.684 97.1204C132.661 97.1285 132.636 97.1289 132.613 97.1217Z" fill="#263238"/>
<path d="M70.8409 72.9891V73.0083C70.9348 73.3384 72.3992 78.5464 73.8449 83.0098C74.9037 86.2682 75.9626 89.1236 76.4733 89.3922C77.0553 89.6916 79.8752 90.7431 80.8215 91.0694C80.8215 91.0694 86.8894 112.527 91.9435 119.508C93.6745 121.903 101.56 124.298 105.416 121.711C114.465 115.647 127.867 99.8773 127.867 99.8773L112.254 86.8285L101.199 101.796C98.462 96.6036 96.975 86.1223 96.975 86.1223C96.975 86.1223 96.3555 75.7601 92.6381 71.4578L70.8409 72.9891Z" fill="#37474F"/>
<path d="M124.104 101.781C121.753 99.954 122.403 100.511 120.071 98.6568C118.945 97.7473 111.435 91.7794 110.519 90.7393C110.516 90.734 110.514 90.7279 110.514 90.7216C110.514 90.7153 110.516 90.7093 110.52 90.7043C110.524 90.6993 110.529 90.6955 110.535 90.6935C110.54 90.6916 110.547 90.6915 110.553 90.6933C111.75 91.3726 119.14 97.4748 120.267 98.4035C122.561 100.303 121.881 99.7852 124.157 101.712C124.161 101.715 124.165 101.72 124.168 101.725C124.17 101.73 124.172 101.735 124.173 101.741C124.173 101.747 124.173 101.752 124.172 101.758C124.17 101.763 124.168 101.769 124.164 101.773C124.161 101.778 124.156 101.782 124.151 101.784C124.147 101.787 124.141 101.789 124.136 101.79C124.13 101.79 124.124 101.79 124.119 101.789C124.114 101.787 124.108 101.784 124.104 101.781Z" fill="#263238"/>
<path d="M92.1838 83.5816C91.6806 83.4857 91.1512 83.4819 90.6443 83.4358C90.2312 83.3974 89.8219 83.3514 89.4127 83.29C88.6326 83.204 87.881 82.9418 87.2123 82.5224C86.4801 82.0196 86.0858 81.2022 85.6803 80.4154C85.4475 79.951 85.2109 79.4866 84.9706 79.0261L84.6139 78.3583C84.4541 78.0995 84.3087 77.8317 84.1783 77.5562C84.1783 77.5178 84.0995 77.5562 84.1182 77.5792C84.2012 77.769 84.2727 77.9638 84.3323 78.1626C84.4149 78.389 84.4937 78.6193 84.5801 78.8457C84.7303 79.2295 84.8805 79.6517 85.042 80.0546C85.2934 80.795 85.63 81.5023 86.0445 82.1616C86.8668 83.313 88.2299 83.716 89.5704 83.7966C89.9458 83.8158 90.3401 83.8196 90.7231 83.8158C91.2092 83.8293 91.6955 83.7985 92.1763 83.7236C92.1947 83.7247 92.2127 83.7182 92.2265 83.7056C92.2402 83.693 92.2485 83.6753 92.2495 83.6565C92.2505 83.6377 92.2441 83.6192 92.2318 83.6052C92.2195 83.5911 92.2022 83.5827 92.1838 83.5816Z" fill="#263238"/>
<path d="M74.9713 88.7513C76.9743 89.3444 78.923 90.1149 80.7951 91.054C80.803 91.057 80.8102 91.0616 80.8164 91.0675C80.8226 91.0734 80.8275 91.0804 80.831 91.0883C80.8345 91.0961 80.8364 91.1046 80.8367 91.1132C80.837 91.1218 80.8356 91.1304 80.8327 91.1384C80.8297 91.1465 80.8252 91.1539 80.8195 91.1602C80.8137 91.1665 80.8068 91.1715 80.7991 91.1751C80.7915 91.1787 80.7832 91.1807 80.7748 91.181C80.7663 91.1812 80.758 91.1798 80.7501 91.1768C78.7938 90.4745 76.8037 89.8105 74.8849 88.9969C74.853 88.9852 74.827 88.961 74.8126 88.9297C74.7982 88.8984 74.7965 88.8625 74.8079 88.83C74.8194 88.7974 74.843 88.7708 74.8737 88.756C74.9043 88.7413 74.9394 88.7396 74.9713 88.7513Z" fill="#263238"/>
<path d="M73.5294 75.4722C73.5294 75.4031 73.6458 75.3801 73.6495 75.453C73.7884 77.7557 74.0663 79.7821 74.4005 81.9237C74.5582 82.9215 75.7109 88.3982 77.3819 87.8762C77.6635 87.7879 77.7874 87.4924 77.8062 87.0511C77.7599 86.4789 77.6464 85.9145 77.4682 85.3701C77.2016 84.2187 76.9726 83.0674 76.7999 81.916C76.4535 79.7514 76.3277 77.5559 76.4244 75.3647C76.4276 75.3525 76.4346 75.3416 76.4445 75.3339C76.4543 75.3261 76.4664 75.3219 76.4788 75.3219C76.4913 75.3219 76.5033 75.3261 76.5132 75.3339C76.523 75.3416 76.5301 75.3525 76.5333 75.3647C76.6845 78.3896 77.0611 81.3982 77.6597 84.3646C77.9676 85.7884 78.82 87.9069 77.3631 88.2293C75.9062 88.5517 74.6671 84.9978 74.4193 84.0076C73.7634 81.2137 73.4643 78.3447 73.5294 75.4722Z" fill="#263238"/>
<path d="M77.3445 88.0374C77.5202 88.4007 77.6732 88.775 77.8025 89.1581C77.9311 89.4513 78.0061 89.7661 78.0241 90.0869C78.0219 90.0995 78.0162 90.1114 78.0078 90.1209C77.9994 90.1305 77.9885 90.1375 77.9764 90.1411C77.9643 90.1447 77.9514 90.1448 77.9393 90.1413C77.9271 90.1378 77.9162 90.1309 77.9077 90.1214C77.7117 89.8507 77.5584 89.5502 77.4533 89.231C77.2994 88.8856 77.1379 88.544 76.9952 88.1948C76.9797 88.1484 76.9817 88.0977 77.0009 88.0528C77.0202 88.0078 77.0552 87.9719 77.0991 87.9521C77.143 87.9323 77.1926 87.9301 77.238 87.9459C77.2835 87.9617 77.3215 87.9944 77.3445 88.0374Z" fill="#263238"/>
<path d="M110.605 92.4433C108.207 95.9691 105.662 99.395 102.971 102.721C102.243 103.612 101.502 104.492 100.749 105.362C98.3041 101.908 97.1138 97.778 96.1638 93.6638C95.9197 92.6084 95.6907 91.5491 95.4541 90.4899C95.1611 89.3643 94.9243 88.2243 94.7444 87.0741C94.598 85.8806 94.6618 84.664 94.5567 83.4627C94.4489 82.301 94.2696 81.1473 94.0197 80.0086C93.4494 77.4283 92.5875 74.9246 91.4514 72.5478C91.4514 72.5171 91.3838 72.5478 91.3951 72.5708C92.3165 74.7605 93.0697 77.0201 93.648 79.3293C93.927 80.5036 94.1352 81.6943 94.2713 82.8947C94.4065 84.1036 94.3915 85.3126 94.4703 86.5253C94.592 87.6754 94.8029 88.8137 95.1011 89.9295C95.3377 90.9849 95.5668 92.0442 95.8033 93.0996C96.2484 95.185 96.805 97.2439 97.4705 99.2671C98.2035 101.526 99.2738 103.656 100.643 105.58C100.654 105.595 100.667 105.606 100.683 105.614C100.699 105.622 100.716 105.626 100.733 105.626C100.751 105.626 100.768 105.622 100.784 105.614C100.8 105.606 100.813 105.595 100.824 105.58C103.58 102.345 106.212 98.9946 108.649 95.4868C109.345 94.4889 110.027 93.4808 110.695 92.4625C110.729 92.4395 110.643 92.3896 110.605 92.4433Z" fill="#263238"/>
<path d="M84.1219 46.9492C81.1743 49.1214 67.4014 54.8437 62.3811 52.2569C57.2669 49.6165 52.2016 35.4355 51.1953 34.2189C48.4354 30.8493 60.3046 26.075 61.3898 28.4122C63.2034 32.3153 67.0559 42.739 68.8245 42.9655C72.5456 43.4413 75.9588 42.9463 81.7789 42.8733C85.8605 42.8158 87.3624 44.5505 84.1219 46.9492Z" fill="#EB9481"/>
<path d="M62.6365 30.9874C62.6365 30.9874 67.4653 42.1173 68.5542 42.4243C70.3678 42.9539 80.1944 42.6047 83.724 42.6661C87.2536 42.7275 90.6517 45.9206 82.2934 49.1099C73.935 52.2991 66.8983 53.9609 62.3511 52.917C59.5274 52.2646 51.7736 39.7531 51.7736 39.7531L62.6365 30.9874Z" fill="#F1C85E"/>
<path opacity="0.1" d="M62.6365 30.9874C62.6365 30.9874 67.4653 42.1173 68.5542 42.4243C70.3678 42.9539 80.1944 42.6047 83.724 42.6661C87.2536 42.7275 90.6517 45.9206 82.2934 49.1099C73.935 52.2991 66.8983 53.9609 62.3511 52.917C59.5274 52.2646 51.7736 39.7531 51.7736 39.7531L62.6365 30.9874Z" fill="white"/>
<path d="M53.8762 41.791C57.7475 38.0606 62.351 34.7754 63.1132 34.1422C63.1508 34.1115 63.1921 34.1767 63.1545 34.2074C62.3735 34.7869 57.4996 39.1583 53.9175 41.8832C53.8762 41.8947 53.8386 41.8256 53.8762 41.791Z" fill="#263238"/>
<path opacity="0.1" d="M87.4863 45.2106C87.3361 46.3389 85.928 47.7244 82.2933 49.1099C73.9387 52.303 66.8982 53.9609 62.3548 52.917C61.7916 52.7865 61.0293 52.184 60.1732 51.2974C66.6129 49.8774 82.1394 46.4617 87.4863 45.2106Z" fill="white"/>
<path d="M51.9576 35.4854C53.1216 36.372 61.3448 31.4249 61.5326 29.9167C61.5506 29.4008 61.5026 28.8847 61.3899 28.3815C61.3899 28.3815 61.9682 25.0426 63.4175 22.4366C64.6304 20.249 66.6768 17.1404 65.5503 16.4304C63.9094 15.3865 60.8605 19.0017 59.2308 21.1817C58.6526 19.8115 58.033 18.6909 57.4322 18.1689C55.4459 16.4611 46.8096 24.5436 47.3053 27.1994C47.7897 29.7631 50.7936 34.6027 51.9576 35.4854Z" fill="#EB9481"/>
<path d="M59.9742 21.4657C59.5086 22.7629 58.2769 21.4657 58.2769 21.4657C58.2769 21.4657 59.6062 23.7684 58.6186 24.9197C57.6311 26.0711 56.2343 24.3978 56.1291 24.2827C56.1967 24.4055 57.3645 26.5624 56.2568 27.6139C55.1491 28.6655 53.94 26.8156 53.8649 26.6928C53.895 26.831 54.2592 28.6502 53.2379 29.2527C51.4843 30.2851 50.433 25.6566 49.0099 24.8315C49.0099 24.8315 47.3652 27.1342 47.3014 27.1994C47.3014 27.1994 46.2125 22.8166 47.4103 20.913C47.5797 20.6327 47.8378 20.4201 48.1418 20.3105C48.4457 20.2008 48.7772 20.2008 49.0812 20.3105C49.0812 20.3105 48.5781 18.9365 49.4229 18.0845C49.8585 17.647 50.9249 17.9693 50.9249 17.9693C50.9249 17.9693 50.5494 16.8525 51.3642 16.1387C52.0025 15.5668 52.9788 15.9813 52.9788 15.9813C52.9788 15.9813 53.1215 14.7455 53.9588 14.3809C55.6485 13.6364 60.9692 18.6717 59.9742 21.4657Z" fill="#EB9481"/>
<path d="M53.1517 16.0236C53.1517 16.0236 53.1517 15.9775 53.1705 15.989C55.4065 17.2527 57.2137 19.1815 58.3523 21.5194C58.3861 21.5962 58.2809 21.6844 58.2284 21.6115C56.8099 19.5074 55.0998 17.6251 53.1517 16.0236Z" fill="#263238"/>
<path d="M50.9175 17.931C50.8949 17.931 50.9175 17.8773 50.9475 17.8926C53.1554 19.1668 55.337 21.5002 56.2344 24.2865C56.2645 24.3824 56.1969 24.4976 56.1556 24.3901C55.4196 22.5863 52.7649 19.4086 50.9175 17.931Z" fill="#263238"/>
<path d="M53.8613 26.9078C52.9 24.2711 51.2103 22.214 49.1752 20.3565C49.1489 20.3335 49.1752 20.2989 49.2127 20.3105C50.4481 20.9437 51.6271 22.2639 52.4569 23.3808C53.2461 24.396 53.7637 25.6035 53.9589 26.8847C53.9439 26.927 53.8838 26.9653 53.8613 26.9078Z" fill="#263238"/>
<path d="M58.3219 21.4656C58.3632 21.5577 58.1905 21.5194 58.228 21.6115C58.3895 21.9953 59.1592 24.3978 58.4421 24.9197C57.8638 25.3381 56.9138 24.8353 56.6247 24.4937L55.8925 23.6609L56.2905 24.724C56.4699 25.1936 56.5727 25.6902 56.5947 26.1939C56.6187 26.4265 56.5943 26.6616 56.5231 26.8838C56.4519 27.1061 56.3355 27.3104 56.1816 27.4834C56.0365 27.6422 55.8425 27.7453 55.632 27.7753C55.4214 27.8054 55.2072 27.7606 55.0251 27.6485C54.6213 27.3907 54.289 27.0313 54.0601 26.6046L53.3842 25.4532L53.6508 26.7619C53.7247 27.1265 53.7537 27.4991 53.7372 27.8711C53.7329 28.2244 53.6271 28.5687 53.433 28.8612C53.3403 28.9888 53.2145 29.0873 53.0698 29.1456C52.9252 29.204 52.7674 29.2198 52.6145 29.1913C52.2816 29.0745 51.9875 28.8643 51.7659 28.5849C51.2815 27.9806 50.8433 27.3391 50.4554 26.666C50.2451 26.3359 50.0386 26.002 49.8133 25.6796C49.6065 25.3436 49.3327 25.0559 49.0098 24.8353C49.3025 25.0874 49.5447 25.395 49.7232 25.741C49.9222 26.0749 50.0987 26.4203 50.2864 26.7696C50.6374 27.4799 51.0535 28.1546 51.5293 28.7845C51.7804 29.1343 52.1264 29.4011 52.5243 29.552C52.7483 29.608 52.9833 29.596 53.2007 29.5176C53.4181 29.4392 53.6084 29.2978 53.7484 29.1107C54.0034 28.7531 54.1462 28.3249 54.1577 27.8826C54.184 27.4676 54.1575 27.0509 54.0789 26.6429L53.6733 26.8003C53.935 27.3091 54.3236 27.7381 54.7998 28.0438C55.068 28.2086 55.3845 28.2711 55.6935 28.2203C55.9939 28.1617 56.27 28.0119 56.4858 27.7905C56.6821 27.5726 56.8307 27.3144 56.9213 27.0331C57.012 26.7517 57.0427 26.4538 57.0114 26.1594C56.9761 25.6043 56.8492 25.0593 56.636 24.5475L56.3018 24.7547C56.6773 25.173 57.6873 25.8523 58.6598 25.3227C59.8501 24.4285 58.5848 21.9108 58.3219 21.4656Z" fill="#263238"/>
<path d="M58.2771 21.458C58.5071 21.6238 58.7603 21.7532 59.0281 21.8418C59.1339 21.8792 59.2476 21.8869 59.3573 21.8639C59.4669 21.841 59.5685 21.7882 59.6514 21.7113C59.8107 21.5186 59.9112 21.2824 59.9405 21.032C59.9856 20.7556 60.0231 20.464 60.0457 20.1646C60.1706 20.4454 60.2347 20.7504 60.2334 21.0588C60.2432 21.2281 60.22 21.3977 60.1653 21.5578C60.1105 21.7179 60.0252 21.8653 59.9142 21.9914C59.7784 22.1182 59.6082 22.1998 59.4261 22.2256C59.2527 22.2387 59.079 22.2042 58.9229 22.1258C58.6435 21.9793 58.4172 21.7453 58.2771 21.458Z" fill="#263238"/>
<path d="M94.6244 77.3912C94.5456 77.4526 70.3228 74.7047 70.1238 74.3861C69.8459 73.9179 77.0628 48.254 82.605 42.9846C83.9906 41.6682 87.8243 42.2554 89.3638 43.9556C97.0088 52.3951 94.8986 77.1724 94.6244 77.3912Z" fill="#EBEBEB"/>
<path d="M82.3948 42.9923L73.0939 77.6483L68.3364 74.1597C68.3364 74.1597 76.0978 51.7081 78.3507 48.135C80.6037 44.562 82.3948 42.9923 82.3948 42.9923Z" fill="#F1C85E"/>
<path opacity="0.1" d="M82.3948 42.9923L73.0939 77.6483L68.3364 74.1597C68.3364 74.1597 76.0978 51.7081 78.3507 48.135C80.6037 44.562 82.3948 42.9923 82.3948 42.9923Z" fill="white"/>
<path d="M87.873 42.7467C87.873 42.7467 87.4975 56.0795 87.4975 59.2112C87.4975 62.3429 86.7878 79.4444 86.7878 79.4444L97.8085 77.3912C97.8085 77.3912 95.7958 60.8077 95.0974 56.9775C94.399 53.1473 91.4477 43.875 87.873 42.7467Z" fill="#F1C85E"/>
<path opacity="0.1" d="M87.873 42.7467C87.873 42.7467 87.4975 56.0795 87.4975 59.2112C87.4975 62.3429 86.7878 79.4444 86.7878 79.4444L97.8085 77.3912C97.8085 77.3912 95.7958 60.8077 95.0974 56.9775C94.399 53.1473 91.4477 43.875 87.873 42.7467Z" fill="white"/>
<path d="M90.4865 50.242C96.8924 56.9468 105.382 64.1198 110.102 63.0951C114.371 62.1663 120.507 57.0504 127.202 51.5354C128.531 50.4416 119.658 40.3173 118.355 41.6299C115.791 44.2127 110.526 50.8062 108.563 51.5354C107.722 51.8463 98.3042 47.0374 92.1312 44.6272C84.6364 41.6989 87.9332 47.5709 90.4865 50.242Z" fill="#EB9481"/>
<path d="M133.082 46.8724C131.325 49.0331 125.227 53.0859 123.695 53.3047C122.163 53.5234 116.883 44.5121 117.469 42.9885C118.055 41.4648 124.517 34.6526 127.266 34.0731C130.014 33.4936 134.903 44.6311 133.082 46.8724Z" fill="#EB9481"/>
<path d="M123.199 35.8308C122.985 37.3007 124.806 36.7212 124.806 36.7212C124.806 36.7212 122.381 38.2026 122.734 39.7915C123.075 41.3267 125.249 40.5591 125.407 40.5015C125.279 40.5821 123.087 42.006 123.605 43.5718C124.142 45.2106 126.192 44.0439 126.327 43.9556C126.229 44.0707 124.968 45.5982 125.625 46.7035C126.751 48.6224 130.089 44.7846 131.854 44.7615C131.854 44.7615 132.924 46.9146 132.954 46.999C132.954 46.999 135.511 44.3355 135.343 41.9062C135.327 41.5511 135.192 41.2125 134.96 40.9479C134.728 40.6834 134.413 40.5093 134.07 40.4555C134.07 40.4555 135.241 39.4231 134.873 38.1527C134.682 37.508 133.506 37.247 133.506 37.247C133.506 37.247 134.408 36.3796 134.013 35.2858C133.702 34.4108 132.571 34.2842 132.571 34.2842C132.571 34.2842 133.06 33.0407 132.455 32.2539C131.242 30.7226 123.665 32.6761 123.199 35.8308Z" fill="#EB9481"/>
<path d="M132.395 34.2957C132.399 34.2939 132.402 34.2909 132.405 34.2872C132.407 34.2834 132.408 34.279 132.408 34.2746C132.408 34.2701 132.407 34.2657 132.405 34.2619C132.402 34.2582 132.399 34.2552 132.395 34.2534C129.645 34.2655 126.964 35.1329 124.709 36.7404C124.637 36.7941 124.69 36.9323 124.78 36.8901C127.182 35.652 129.747 34.778 132.395 34.2957Z" fill="#263238"/>
<path d="M133.548 37.2777C133.578 37.2777 133.57 37.224 133.548 37.224C130.822 37.2624 127.581 38.3139 125.324 40.4708C125.249 40.5437 125.253 40.6896 125.347 40.6128C126.935 39.2926 131.047 37.696 133.548 37.2777Z" fill="#263238"/>
<path d="M126.218 44.2012C128.471 42.2171 131.099 41.1693 133.957 40.49C133.995 40.49 133.979 40.4286 133.957 40.4248C132.455 40.3672 130.69 40.9966 129.346 41.603C128.087 42.1426 126.989 43.0108 126.162 44.1206C126.117 44.1629 126.169 44.2435 126.218 44.2012Z" fill="#263238"/>
<path d="M124.806 36.7097C124.365 37.0354 123.957 37.4043 123.586 37.8112C123.208 38.188 122.934 38.6608 122.794 39.1813C122.743 39.4236 122.782 39.6764 122.903 39.8913C123.026 40.1075 123.202 40.2873 123.413 40.4133C123.634 40.52 123.875 40.5785 124.119 40.5851C124.363 40.5917 124.606 40.5463 124.833 40.4516L125.959 40.0295L125.05 40.8239C124.643 41.1713 124.294 41.5849 124.018 42.0482C123.878 42.2561 123.783 42.4916 123.738 42.7396C123.694 42.9876 123.701 43.2423 123.759 43.4874C123.816 43.7133 123.947 43.9126 124.13 44.0521C124.313 44.1917 124.537 44.2633 124.765 44.255C125.276 44.2232 125.771 44.0595 126.203 43.7791L127.423 43.046L126.511 44.1398C126.256 44.4457 126.04 44.7836 125.869 45.1453C125.695 45.4809 125.621 45.861 125.655 46.2391C125.678 46.4083 125.747 46.5676 125.854 46.6991C125.961 46.8306 126.101 46.9291 126.259 46.9837C126.633 47.0516 127.017 47.009 127.367 46.8609C128.129 46.5517 128.866 46.1821 129.571 45.7556C129.947 45.5522 130.3 45.3488 130.675 45.1607C131.039 44.948 131.444 44.8172 131.862 44.7769C131.46 44.8602 131.077 45.0218 130.735 45.2528C130.36 45.4677 130.033 45.698 129.684 45.9283C128.993 46.4141 128.259 46.8318 127.491 47.1756C127.078 47.3707 126.619 47.4375 126.169 47.3675C125.929 47.3025 125.713 47.1673 125.547 46.9784C125.381 46.7896 125.272 46.5553 125.234 46.3044C125.178 45.8359 125.257 45.3606 125.463 44.9381C125.649 44.5336 125.884 44.1545 126.162 43.8098L126.47 44.1744C125.963 44.5151 125.378 44.7148 124.772 44.7539C124.437 44.7643 124.108 44.6559 123.841 44.4469C123.586 44.2336 123.4 43.9458 123.308 43.6217C123.234 43.312 123.225 42.99 123.282 42.6766C123.338 42.3631 123.458 42.0653 123.635 41.8026C123.947 41.2977 124.338 40.8479 124.791 40.4708L125.005 40.8546C124.721 40.963 124.416 41.0065 124.113 40.982C123.81 40.9574 123.516 40.8655 123.252 40.7126C122.998 40.5442 122.791 40.3115 122.651 40.0371C122.511 39.7548 122.476 39.4302 122.553 39.1237C122.732 38.5711 123.059 38.0805 123.496 37.7075C123.895 37.3256 124.334 36.9909 124.806 36.7097Z" fill="#263238"/>
<path d="M118.355 41.6298C118.355 41.6298 121.671 30.1968 125.407 33.7123C126.533 34.7562 129.856 40.3979 128.764 41.1079C127.348 42.0213 125.523 39.9297 124.581 38.4214C124.581 38.4214 123.988 42.4703 121.108 42.8925C120.58 42.961 120.043 42.8793 119.558 42.6566C119.072 42.4338 118.656 42.0786 118.355 41.6298Z" fill="#EB9481"/>
<path d="M125.08 33.4398C125.563 33.7965 125.992 34.2232 126.353 34.7063C126.728 35.1809 127.07 35.681 127.378 36.2031C128.013 37.2373 128.559 38.3263 129.008 39.4576C129.126 39.7587 129.202 40.0752 129.233 40.3979C129.249 40.5837 129.226 40.7708 129.166 40.9467C129.132 41.0438 129.082 41.1345 129.019 41.2154C128.956 41.293 128.881 41.3603 128.798 41.4149C128.492 41.605 128.13 41.6771 127.776 41.6183C127.454 41.5574 127.144 41.4405 126.86 41.2729C126.331 40.9455 125.861 40.5275 125.471 40.0371C125.081 39.5687 124.726 39.0709 124.408 38.548L124.784 38.4598C124.7 38.9197 124.574 39.3707 124.408 39.8069C124.248 40.2397 124.042 40.654 123.796 41.0427C123.548 41.4312 123.246 41.7803 122.899 42.0789C122.555 42.3757 122.159 42.6024 121.731 42.7467C122.126 42.5524 122.488 42.2931 122.801 41.9791C123.104 41.6603 123.365 41.3015 123.575 40.9122C123.785 40.5247 123.959 40.1173 124.093 39.6956C124.226 39.278 124.321 38.8489 124.378 38.4137L124.442 37.8764L124.754 38.3254C125.08 38.8151 125.436 39.283 125.82 39.7263C126.188 40.1655 126.621 40.5425 127.104 40.8431C127.566 41.1079 128.144 41.2499 128.527 40.9966C128.884 40.8047 128.745 40.1561 128.565 39.6226C128.368 39.0633 128.143 38.515 127.889 37.98C127.645 37.4351 127.39 36.8939 127.112 36.3681C126.534 35.3242 125.952 34.2573 125.08 33.4398Z" fill="#263238"/>
<path d="M117.052 42.9232C117.052 42.9232 109.287 51.0173 108.153 50.9444C106.276 50.8216 94.8647 45.2912 91.5191 44.1398C88.1735 42.9885 84.5876 43.6678 89.8745 50.054C95.841 57.2577 102.521 63.6746 109.426 63.6823C113.147 63.6823 124.735 55.4155 124.735 55.4155L117.052 42.9232Z" fill="#F1C85E"/>
<path opacity="0.1" d="M117.052 42.9232C117.052 42.9232 109.287 51.0173 108.153 50.9444C106.276 50.8216 94.8647 45.2912 91.5191 44.1398C88.1735 42.9885 84.5876 43.6678 89.8745 50.054C95.841 57.2577 102.521 63.6746 109.426 63.6823C113.147 63.6823 124.735 55.4155 124.735 55.4155L117.052 42.9232Z" fill="white"/>
<path d="M121.769 56.1025C119.343 51.2591 116.084 46.5922 115.569 45.7402C115.547 45.698 115.487 45.7402 115.513 45.7863C116.057 46.5999 119.219 52.3874 121.705 56.1485C121.735 56.1984 121.795 56.1485 121.769 56.1025Z" fill="#263238"/>
<path d="M94.8272 55.5383C94.651 55.3486 94.4855 55.1487 94.3316 54.9396C94.1476 54.7362 93.9561 54.5328 93.7796 54.3294C93.4041 53.9456 93.0624 53.5618 92.7057 53.1511C91.996 52.3644 91.2413 51.616 90.5053 50.8484C90.5053 50.8484 90.479 50.8484 90.5053 50.8484C91.1775 51.6774 91.8383 52.5102 92.5668 53.2893L92.6156 53.343L92.1875 53.0475C91.8909 52.8441 91.5943 52.6407 91.3014 52.4335C91.3014 52.4335 91.2638 52.4527 91.2788 52.4642C91.5529 52.6944 91.8346 52.9132 92.1312 53.1166C92.2814 53.2202 92.4316 53.32 92.5893 53.416L92.8071 53.5464L93.6294 54.4176C93.8172 54.6134 94.0049 54.8014 94.2002 55.001C94.3954 55.2006 94.6282 55.3464 94.8009 55.5575C94.8084 55.6112 94.8723 55.5652 94.8272 55.5383Z" fill="#263238"/>
<path d="M83.202 47.6899C84.351 47.9739 87.1822 46.2392 88.4814 44.562C88.5678 44.4469 88.5978 43.0767 88.7142 41.4149C88.7855 40.4056 88.8907 39.2849 89.0596 38.2679L82.5712 38.7399C82.7159 40.0711 82.7007 41.4154 82.5261 42.7428C82.5021 42.8832 82.4643 43.0208 82.4135 43.1535C82.4135 43.1727 82.4135 43.1957 82.4135 43.2226C82.1356 44.0017 81.4034 47.2447 83.202 47.6899Z" fill="#EB9481"/>
<path d="M82.4172 43.1535C82.4063 43.1752 82.3987 43.1985 82.3947 43.2226C82.6019 43.2889 82.8142 43.3376 83.0292 43.3684C86.5889 43.8981 88.1847 39.6303 88.5902 38.3024L82.5824 38.7361C82.7295 40.0696 82.7168 41.4164 82.5448 42.7467C82.5131 42.8856 82.4704 43.0216 82.4172 43.1535Z" fill="#263238"/>
<path d="M91.9396 30.642C92.0334 33.033 89.2435 39.1314 87.3361 40.1446C84.5687 41.6145 80.8551 40.8316 79.8263 37.6231C78.8425 34.5106 82.6124 26.6314 84.6701 25.7986C87.7116 24.5667 91.8006 27.115 91.9396 30.642Z" fill="#EB9481"/>
<path d="M86.7054 31.9431C86.5543 31.8156 86.4101 31.6798 86.2735 31.5362C86.0971 31.4178 85.9648 31.2421 85.8981 31.0373C85.8908 30.969 85.9055 30.9002 85.9401 30.8413C85.9747 30.7824 86.0272 30.7367 86.0896 30.7111C86.2198 30.6807 86.3556 30.6864 86.483 30.7275C86.6104 30.7687 86.7247 30.8438 86.8142 30.9452C87.027 31.1207 87.1677 31.3713 87.2085 31.6475C87.2126 31.7092 87.1996 31.7708 87.1711 31.8253C87.1426 31.8798 87.0996 31.9251 87.0472 31.9559C86.9948 31.9867 86.9349 32.0018 86.8745 31.9995C86.814 31.9973 86.7554 31.9777 86.7054 31.9431Z" fill="#A6A6A6"/>
<path d="M82.6951 30.1853C82.8904 30.2352 83.0706 30.2467 83.2771 30.2774C83.477 30.3373 83.6904 30.3292 83.8854 30.2544C83.9418 30.218 83.985 30.1639 84.0087 30.1002C84.0324 30.0366 84.0353 29.9668 84.0168 29.9013C83.9586 29.7776 83.8691 29.6722 83.7575 29.5959C83.6459 29.5196 83.5163 29.4753 83.3823 29.4676C83.1149 29.4054 82.8344 29.4493 82.5975 29.5904C82.5454 29.6257 82.5044 29.6756 82.4795 29.7341C82.4546 29.7927 82.4469 29.8573 82.4572 29.9203C82.4675 29.9832 82.4955 30.0418 82.5377 30.0888C82.58 30.1359 82.6346 30.1694 82.6951 30.1853Z" fill="#A6A6A6"/>
<path d="M84.3811 36.656C84.2482 36.7418 84.0896 36.7759 83.9342 36.7519C83.7842 36.6823 83.65 36.5817 83.54 36.4564C83.54 36.4564 83.5137 36.4564 83.5137 36.4564C83.5384 36.5637 83.5908 36.6623 83.6654 36.7419C83.7401 36.8216 83.8342 36.8793 83.938 36.9093C84.03 36.9247 84.1244 36.9114 84.2089 36.871C84.2933 36.8306 84.3638 36.765 84.4111 36.6828C84.4299 36.6713 84.3998 36.6483 84.3811 36.656Z" fill="#263238"/>
<path d="M83.0292 35.1745C83.1045 35.4788 83.2559 35.7578 83.4685 35.9843C83.5883 36.1047 83.7419 36.1838 83.9078 36.2108C84.2833 36.2683 84.4072 35.9651 84.456 35.6773C84.481 35.5239 84.4885 35.3681 84.4786 35.2129C84.0037 35.3579 83.496 35.3444 83.0292 35.1745Z" fill="#263238"/>
<path d="M83.4685 35.9805C83.5883 36.1009 83.7419 36.18 83.9078 36.2069C84.2833 36.2645 84.4072 35.9613 84.456 35.6735C84.2815 35.6045 84.0895 35.5973 83.9105 35.6529C83.7315 35.7086 83.5759 35.8239 83.4685 35.9805Z" fill="#FF9BBC"/>
<path d="M86.2358 32.9601C86.2585 32.8396 86.2495 32.7151 86.2095 32.5993C86.1833 32.5373 86.1453 32.4812 86.0975 32.4344C86.0498 32.3876 85.9934 32.351 85.9317 32.3269C85.8688 32.3074 85.8025 32.3025 85.7376 32.3124C85.6726 32.3224 85.6107 32.347 85.5562 32.3844C85.4607 32.4533 85.3823 32.544 85.3271 32.6492C85.2957 32.714 85.2682 32.7807 85.2445 32.8488C85.1937 32.9884 85.1757 33.1383 85.1919 33.2863C85.2219 33.1826 85.2621 33.0823 85.3121 32.987C85.3581 32.9018 85.4096 32.8197 85.466 32.7413C85.5824 32.584 85.7364 32.4727 85.8753 32.5341C85.9487 32.5704 86.0085 32.6301 86.0458 32.7041C86.083 32.7782 86.0957 32.8627 86.0818 32.9448C86.0723 33.1518 86.0434 33.3574 85.9955 33.5588C86.1189 33.3804 86.2011 33.1757 86.2358 32.9601Z" fill="#263238"/>
<path d="M82.2783 31.1064C82.3493 31.0083 82.4436 30.9304 82.5524 30.88C82.6118 30.8544 82.6756 30.8413 82.7401 30.8413C82.8046 30.8413 82.8684 30.8544 82.9278 30.88C82.9877 30.9121 83.0395 30.9579 83.0793 31.0138C83.119 31.0697 83.1456 31.1342 83.1569 31.2024C83.1728 31.3211 83.1612 31.4421 83.1231 31.5554C83.1024 31.6241 83.076 31.6909 83.0442 31.755C82.9798 31.8889 82.886 32.0058 82.7701 32.0966C82.8242 32.0037 82.8671 31.9045 82.8978 31.8011C82.9274 31.7083 82.95 31.6134 82.9654 31.5171C82.9954 31.3213 82.9654 31.1333 82.8302 31.0719C82.7536 31.0421 82.6696 31.0387 82.591 31.0622C82.5123 31.0858 82.4434 31.135 82.3947 31.2024C82.2538 31.3529 82.128 31.5175 82.0192 31.6936C82.0585 31.4796 82.1473 31.2782 82.2783 31.1064Z" fill="#263238"/>
<g opacity="0.2">
<path opacity="0.2" d="M86.0109 29.6365C85.7737 29.5806 85.5404 29.5088 85.3125 29.4216C85.0834 29.3218 84.8769 29.1798 84.6479 29.0877C84.2043 28.9347 83.7379 28.862 83.2698 28.8728C83.2285 28.8728 83.2248 28.8996 83.2698 28.8996C83.7623 28.9071 84.2476 29.0223 84.6929 29.2374C85.0455 29.4431 85.4247 29.5969 85.8194 29.6941C86.7283 29.8434 87.5673 30.2843 88.215 30.9529C87.625 30.2995 86.8575 29.8411 86.0109 29.6365Z" fill="white"/>
<path opacity="0.2" d="M86.2548 29.034C86.0303 28.9814 85.8095 28.9134 85.5939 28.8305C85.3762 28.7346 85.1809 28.6003 84.9631 28.512C84.5426 28.3665 84.1003 28.2977 83.6564 28.3086C83.6189 28.3086 83.6151 28.3316 83.6564 28.3355C84.1229 28.3416 84.5826 28.4502 85.0044 28.654C85.3368 28.8491 85.6946 28.9951 86.0671 29.0877C86.9308 29.2237 87.7302 29.6362 88.35 30.2659C87.7874 29.6509 87.0578 29.2219 86.2548 29.034Z" fill="white"/>
</g>
<path d="M82.8154 27.4566C84.4675 29.7977 88.2787 28.5772 88.2787 28.5772C88.2941 29.1348 88.4851 29.6724 88.8234 30.1101C89.1616 30.5478 89.6291 30.8622 90.1562 31.0066C90.1562 31.0066 89.255 34.9519 90.235 35.3012C91.737 35.8423 93.9899 30.8493 93.8923 29.6595C93.7947 28.4698 92.6081 27.7406 92.6081 27.7406C92.6856 27.0748 92.5125 26.4039 92.1237 25.8639C91.3728 24.7125 87.4977 24.4745 87.4977 24.4745C87.465 23.9218 87.3069 23.3844 87.0359 22.9049C86.9715 22.7866 86.8842 22.683 86.7794 22.6004C86.6747 22.5177 86.5545 22.4576 86.4263 22.4239C86.2981 22.3901 86.1646 22.3834 86.0337 22.4041C85.9029 22.4247 85.7776 22.4724 85.6653 22.5441C85.754 22.8917 85.763 23.2555 85.6916 23.6072C85.4776 24.7816 84.5914 24.4515 84.9406 23.4498C85.0618 23.0699 85.314 22.748 85.6503 22.5441C85.4438 21.7266 84.8054 21.2469 84.246 21.4426C83.2321 21.7996 81.4411 25.5146 82.8154 27.4566Z" fill="#A6A6A6"/>
<path d="M84.8467 34.8368C84.4449 34.5738 84.1616 34.1586 84.0588 33.6823C83.956 33.206 84.0422 32.7075 84.2985 32.2961C84.4797 32.0063 84.7369 31.7743 85.0407 31.6264C85.3445 31.4785 85.6829 31.4207 86.0172 31.4596C86.3516 31.4985 86.6686 31.6324 86.9322 31.8463C87.1958 32.0601 87.3954 32.3452 87.5083 32.6692C87.6212 32.9933 87.643 33.3432 87.571 33.6792C87.4991 34.0152 87.3363 34.3238 87.1013 34.57C86.8663 34.8162 86.5684 34.99 86.2416 35.0718C85.9147 35.1536 85.5719 35.14 85.2523 35.0325C85.1091 34.9863 84.9727 34.9204 84.8467 34.8368ZM84.5013 32.4266C84.3351 32.692 84.2497 33.0018 84.2558 33.3168C84.2619 33.6318 84.3593 33.9378 84.5356 34.1962C84.7119 34.4547 84.9593 34.6538 85.2464 34.7686C85.5335 34.8833 85.8474 34.9084 86.1484 34.8407C86.4495 34.7731 86.7242 34.6157 86.9377 34.3884C87.1512 34.1612 87.294 33.8743 87.348 33.5642C87.402 33.254 87.3647 32.9344 87.241 32.6458C87.1173 32.3573 86.9126 32.1127 86.6528 31.943C86.5441 31.8714 86.4267 31.8146 86.3036 31.7742C85.9749 31.6635 85.6196 31.6675 85.2934 31.7856C84.9672 31.9037 84.6885 32.1292 84.5013 32.4266Z" fill="#455A64"/>
<path d="M81.4073 33.1865C80.7389 32.868 80.5324 31.8586 80.953 30.9414C81.1355 30.5226 81.4413 30.1724 81.8278 29.9397C81.9885 29.8316 82.1735 29.7673 82.3653 29.753C82.5571 29.7387 82.7493 29.7748 82.9236 29.8579C83.0979 29.941 83.2485 30.0683 83.361 30.2278C83.4735 30.3872 83.5442 30.5734 83.5664 30.7687C83.6433 31.2201 83.579 31.6848 83.3824 32.0966C82.9844 32.9678 82.1695 33.4514 81.5049 33.2479L81.4073 33.1865ZM81.9443 30.1546C81.6016 30.3613 81.331 30.6727 81.1707 31.045C80.7953 31.8394 80.9605 32.703 81.5087 32.9639C82.0569 33.2249 82.8004 32.7912 83.1646 31.993C83.3382 31.6273 83.396 31.2155 83.3298 30.8147C83.3095 30.6588 83.2529 30.5102 83.1646 30.3813C83.0764 30.2524 82.9592 30.147 82.8229 30.074L82.7403 30.0395C82.6071 30.001 82.4675 29.9914 82.3304 30.0112C82.1933 30.031 82.0618 30.0799 81.9443 30.1546Z" fill="#455A64"/>
<path d="M84.2645 32.5149L84.4823 32.4113C84.3321 32.0812 83.889 31.5247 83.292 31.7704L83.3821 31.9968C83.9191 31.7742 84.2495 32.488 84.2645 32.5149Z" fill="#455A64"/>
<path d="M91.3352 36.4027H91.5755C91.5755 36.2914 91.5191 35.2782 91.0686 34.9635C90.618 34.6488 87.5953 33.5627 87.4676 33.5128L87.385 33.7469C88.2599 34.0654 90.6067 34.9405 90.9334 35.1669C91.2601 35.3933 91.3239 36.1264 91.3352 36.4027Z" fill="#455A64"/>
<path d="M89.2624 35.5008C89.2624 35.5008 91.2413 33.8505 92.0148 34.6296C92.7883 35.4087 90.8883 38.0837 89.7093 38.1834C89.5577 38.2077 89.403 38.2001 89.2544 38.1611C89.1059 38.1221 88.9667 38.0524 88.8454 37.9565C88.7241 37.8606 88.6233 37.7403 88.5491 37.6031C88.4749 37.466 88.4288 37.3147 88.4138 37.1587L89.2624 35.5008Z" fill="#EB9481"/>
<path d="M91.4516 35.3818C91.4704 35.3818 91.4516 35.4125 91.4516 35.4125C90.6105 35.5046 90.0172 36.1033 89.5329 36.7634C89.598 36.6989 89.676 36.6495 89.7616 36.6188C89.8472 36.5881 89.9383 36.5767 90.0286 36.5855C90.119 36.5942 90.2063 36.6229 90.2848 36.6695C90.3632 36.7162 90.4308 36.7796 90.4829 36.8555C90.4852 36.8602 90.4862 36.8654 90.4857 36.8706C90.4852 36.8757 90.4832 36.8807 90.4801 36.8847C90.4769 36.8888 90.4726 36.8918 90.4678 36.8935C90.4629 36.8951 90.4577 36.8953 90.4528 36.8939C90.3325 36.8118 90.1902 36.7699 90.0456 36.7741C89.901 36.7782 89.7612 36.8281 89.6455 36.9169C89.4546 37.0666 89.2797 37.2364 89.1236 37.4235C89.0673 37.485 88.9546 37.4235 89.0034 37.3391C89.27 36.3259 90.3965 35.1746 91.4516 35.3818Z" fill="#263238"/>
<path d="M82.3609 43.0307L83.7503 47.0029L88.6917 42.2401L89.9796 43.8827C89.9796 43.8827 85.0307 51.5584 85.0157 51.2054L83.5663 47.7513L81.2007 50.0079L81.6062 44.1245L82.3609 43.0307Z" fill="#EBEBEB"/>
<path d="M81.2382 47.1065C81.3396 46.1394 81.411 45.1607 81.5537 44.1974C81.5537 44.1628 81.6137 44.1475 81.6212 44.1974C81.7752 45.1415 81.3772 48.8451 81.3471 49.7354C81.4448 49.6357 83.5362 47.7551 83.555 47.7858C83.8742 48.3346 84.9406 50.8561 85.0119 51.0633C85.7929 49.8429 88.7668 45.414 89.7018 44.2665C89.704 44.2629 89.7069 44.2599 89.7102 44.2575C89.7136 44.2551 89.7174 44.2534 89.7214 44.2525C89.7254 44.2516 89.7296 44.2516 89.7336 44.2523C89.7377 44.2531 89.7415 44.2546 89.745 44.2569C89.7484 44.2591 89.7514 44.2621 89.7537 44.2655C89.7561 44.269 89.7577 44.2729 89.7586 44.277C89.7595 44.2811 89.7595 44.2853 89.7588 44.2894C89.7581 44.2935 89.7566 44.2975 89.7543 44.301C89.0559 45.5944 85.0945 51.5623 85.0382 51.5431C84.4754 50.3607 83.974 49.1488 83.5362 47.9125C83.1608 48.3269 81.0618 50.4608 81.0618 50.3188C81.0656 49.2456 81.1245 48.1734 81.2382 47.1065Z" fill="#263238"/>
<path d="M114.146 107.489L112.355 107.829L111.956 109.756L111.557 107.829L109.769 107.489L111.548 107.045L111.956 105.223L112.364 107.045L114.146 107.489Z" fill="#F1C85E"/>
<path d="M83.672 21.5015L81.8804 21.8414L81.4813 23.7678L81.0822 21.8414L79.295 21.5015L81.0733 21.0573L81.4813 19.2352L81.8893 21.0573L83.672 21.5015Z" fill="#F1C85E"/>
<path d="M62.2085 83.3759L60.4169 83.7113L60.0178 85.6376L59.6187 83.7113L57.8315 83.3759L59.6098 82.9317L60.0178 81.1096L60.4258 82.9317L62.2085 83.3759Z" fill="#F1C85E"/>
<path d="M113.011 75.6115L111.224 75.9515L110.825 77.8778L110.426 75.9515L108.634 75.6115L110.417 75.1673L110.825 73.3452L111.233 75.1673L113.011 75.6115Z" fill="#F1C85E"/>
<path d="M136.124 68.0013L135.127 68.1871L134.9 69.2659L134.679 68.1871L133.681 68.0013L134.674 67.752L134.9 66.7322L135.131 67.752L136.124 68.0013Z" fill="#F1C85E"/>
<path d="M74.1511 64.4523L73.1533 64.6427L72.9316 65.7214L72.7054 64.6427L71.7076 64.4523L72.701 64.203L72.9316 63.1877L73.1577 64.203L74.1511 64.4523Z" fill="#F1C85E"/>
<path d="M105.131 28.5995L104.129 28.7899L103.907 29.8641L103.685 28.7899L102.683 28.5995L103.681 28.3502L103.907 27.3349L104.133 28.3502L105.131 28.5995Z" fill="#F1C85E"/>
<path d="M128.448 85.4246L127.45 85.6104L127.229 86.6892L127.002 85.6104L126.005 85.4246L126.998 85.1753L127.229 84.1555L127.455 85.1753L128.448 85.4246Z" fill="#F1C85E"/>
<path d="M120.319 87.496L119.317 87.6818L119.096 88.7606L118.869 87.6818L117.872 87.496L118.865 87.2467L119.096 86.2269L119.322 87.2467L120.319 87.496Z" fill="#F1C85E"/>
<path d="M120.319 44.595L119.317 44.7854L119.096 45.8641L118.869 44.7854L117.872 44.595L118.865 44.3457L119.096 43.3304L119.322 44.3457L120.319 44.595Z" fill="#F1C85E"/>
<path d="M76.9225 43.0539L75.9203 43.2398L75.6986 44.3185L75.4724 43.2398L74.4746 43.0539L75.4724 42.8047L75.6986 41.7848L75.9247 42.8047L76.9225 43.0539Z" fill="#F1C85E"/>
<path d="M52.2927 41.9389L51.2949 42.1293L51.0688 43.208L50.847 42.1293L49.8492 41.9389L50.8426 41.6896L51.0688 40.6743L51.2994 41.6896L52.2927 41.9389Z" fill="#F1C85E"/>
<path d="M65.7296 92.6042L64.7318 92.7946L64.5101 93.8688L64.2839 92.7946L63.2861 92.6042L64.2795 92.3549L64.5101 91.3396L64.7362 92.3549L65.7296 92.6042Z" fill="#F1C85E"/>
<path d="M116.195 92.3096C116.119 92.3096 116.046 92.3406 115.992 92.3958C115.937 92.4511 115.907 92.526 115.907 92.6042C115.907 92.6823 115.937 92.7572 115.992 92.8125C116.046 92.8678 116.119 92.8988 116.195 92.8988C116.272 92.8988 116.345 92.8678 116.399 92.8125C116.453 92.7572 116.484 92.6823 116.484 92.6042C116.484 92.526 116.453 92.4511 116.399 92.3958C116.345 92.3406 116.272 92.3096 116.195 92.3096Z" fill="#F1C85E"/>
<path d="M120.599 50.7684C120.528 50.7774 120.463 50.8125 120.415 50.8672C120.368 50.9219 120.342 50.9923 120.342 51.0653C120.342 51.1383 120.368 51.2087 120.415 51.2634C120.463 51.3181 120.528 51.3532 120.599 51.3622C120.67 51.3532 120.735 51.3181 120.782 51.2634C120.829 51.2087 120.855 51.1383 120.855 51.0653C120.855 50.9923 120.829 50.9219 120.782 50.8672C120.735 50.8125 120.67 50.7774 120.599 50.7684Z" fill="#F1C85E"/>
<path d="M69.5966 25.3542C69.5257 25.3631 69.4605 25.3983 69.4132 25.4529C69.3659 25.5076 69.3398 25.5781 69.3398 25.6511C69.3398 25.724 69.3659 25.7945 69.4132 25.8492C69.4605 25.9038 69.5257 25.939 69.5966 25.9479C69.6674 25.939 69.7326 25.9038 69.7799 25.8492C69.8272 25.7945 69.8533 25.724 69.8533 25.6511C69.8533 25.5781 69.8272 25.5076 69.7799 25.4529C69.7326 25.3983 69.6674 25.3631 69.5966 25.3542Z" fill="#F1C85E"/>
<path d="M47.4812 44.0058C47.4048 44.0058 47.3315 44.0368 47.2774 44.0921C47.2234 44.1473 47.193 44.2223 47.193 44.3004C47.193 44.3785 47.2234 44.4535 47.2774 44.5087C47.3315 44.564 47.4048 44.595 47.4812 44.595C47.5577 44.595 47.631 44.564 47.6851 44.5087C47.7391 44.4535 47.7695 44.3785 47.7695 44.3004C47.7695 44.2223 47.7391 44.1473 47.6851 44.0921C47.631 44.0368 47.5577 44.0058 47.4812 44.0058Z" fill="#F1C85E"/>
<path d="M64.5101 73.3452C64.4393 73.3542 64.3741 73.3893 64.3268 73.444C64.2795 73.4987 64.2534 73.5691 64.2534 73.6421C64.2534 73.7151 64.2795 73.7855 64.3268 73.8402C64.3741 73.8949 64.4393 73.93 64.5101 73.939C64.581 73.93 64.6462 73.8949 64.6935 73.8402C64.7408 73.7855 64.7669 73.7151 64.7669 73.6421C64.7669 73.5691 64.7408 73.4987 64.6935 73.444C64.6462 73.3893 64.581 73.3542 64.5101 73.3452Z" fill="#F1C85E"/>
<path d="M55.9292 67.9288C55.8751 67.9288 55.8232 67.9508 55.785 67.9899C55.7467 68.029 55.7252 68.082 55.7252 68.1373C55.7252 68.1926 55.7467 68.2456 55.785 68.2847C55.8232 68.3238 55.8751 68.3458 55.9292 68.3458C55.9833 68.3458 56.0352 68.3238 56.0735 68.2847C56.1117 68.2456 56.1332 68.1926 56.1332 68.1373C56.1332 68.082 56.1117 68.029 56.0735 67.9899C56.0352 67.9508 55.9833 67.9288 55.9292 67.9288Z" fill="#F1C85E"/>
<path d="M71.8759 32.6063C71.8218 32.6063 71.7699 32.6283 71.7316 32.6674C71.6934 32.7065 71.6719 32.7595 71.6719 32.8148C71.6719 32.8701 71.6934 32.9232 71.7316 32.9623C71.7699 33.0014 71.8218 33.0233 71.8759 33.0233C71.93 33.0233 71.9819 33.0014 72.0201 32.9623C72.0584 32.9232 72.0799 32.8701 72.0799 32.8148C72.0799 32.7595 72.0584 32.7065 72.0201 32.6674C71.9819 32.6283 71.93 32.6063 71.8759 32.6063Z" fill="#F1C85E"/>
<path d="M77.9558 62.0319C77.9063 62.0393 77.8611 62.0647 77.8284 62.1034C77.7957 62.1421 77.7777 62.1915 77.7777 62.2426C77.7777 62.2938 77.7957 62.3432 77.8284 62.3819C77.8611 62.4206 77.9063 62.446 77.9558 62.4534C78.0053 62.446 78.0505 62.4206 78.0832 62.3819C78.1159 62.3432 78.1339 62.2938 78.1339 62.2426C78.1339 62.1915 78.1159 62.1421 78.0832 62.1034C78.0505 62.0647 78.0053 62.0393 77.9558 62.0319Z" fill="#F1C85E"/>
<path d="M59.0468 99.9697C58.9973 99.9771 58.952 100.002 58.9193 100.041C58.8866 100.08 58.8687 100.129 58.8687 100.18C58.8687 100.232 58.8866 100.281 58.9193 100.32C58.952 100.358 58.9973 100.384 59.0468 100.391C59.0962 100.384 59.1415 100.358 59.1742 100.32C59.2069 100.281 59.2249 100.232 59.2249 100.18C59.2249 100.129 59.2069 100.08 59.1742 100.041C59.1415 100.002 59.0962 99.9771 59.0468 99.9697Z" fill="#F1C85E"/>
<path d="M110.031 95.224C109.892 95.2367 109.763 95.3022 109.669 95.4074C109.575 95.5127 109.522 95.6502 109.522 95.7929C109.522 95.9355 109.575 96.0731 109.669 96.1783C109.763 96.2836 109.892 96.349 110.031 96.3617C110.17 96.349 110.3 96.2836 110.394 96.1783C110.488 96.0731 110.54 95.9355 110.54 95.7929C110.54 95.6502 110.488 95.5127 110.394 95.4074C110.3 95.3022 110.17 95.2367 110.031 95.224Z" fill="#F1C85E"/>
<path d="M143.428 62.5214C143.281 62.5214 143.14 62.5811 143.036 62.6873C142.932 62.7936 142.874 62.9377 142.874 63.088C142.874 63.2382 142.932 63.3823 143.036 63.4886C143.14 63.5948 143.281 63.6545 143.428 63.6545C143.575 63.6545 143.716 63.5948 143.82 63.4886C143.924 63.3823 143.982 63.2382 143.982 63.088C143.982 62.9377 143.924 62.7936 143.82 62.6873C143.716 62.5811 143.575 62.5214 143.428 62.5214Z" fill="#F1C85E"/>
<path d="M87.3572 17.4947C87.2181 17.5074 87.0888 17.5728 86.9946 17.6781C86.9004 17.7833 86.8481 17.9208 86.8481 18.0635C86.8481 18.2062 86.9004 18.3437 86.9946 18.4489C87.0888 18.5542 87.2181 18.6196 87.3572 18.6323C87.4962 18.6196 87.6256 18.5542 87.7198 18.4489C87.814 18.3437 87.8662 18.2062 87.8662 18.0635C87.8662 17.9208 87.814 17.7833 87.7198 17.6781C87.6256 17.5728 87.4962 17.5074 87.3572 17.4947Z" fill="#F1C85E"/>
<path d="M80.0621 40.1214C79.9231 40.1341 79.7938 40.1995 79.6996 40.3048C79.6053 40.41 79.5531 40.5475 79.5531 40.6902C79.5531 40.8329 79.6053 40.9704 79.6996 41.0757C79.7938 41.1809 79.9231 41.2463 80.0621 41.259C80.2012 41.2463 80.3305 41.1809 80.4247 41.0757C80.5189 40.9704 80.5712 40.8329 80.5712 40.6902C80.5712 40.5475 80.5189 40.41 80.4247 40.3048C80.3305 40.1995 80.2012 40.1341 80.0621 40.1214Z" fill="#F1C85E"/>
<path d="M61.6675 98.0433C61.5285 98.056 61.3991 98.1214 61.3049 98.2267C61.2107 98.332 61.1584 98.4695 61.1584 98.6121C61.1584 98.7548 61.2107 98.8923 61.3049 98.9976C61.3991 99.1029 61.5285 99.1683 61.6675 99.181C61.8065 99.1683 61.9359 99.1029 62.0301 98.9976C62.1243 98.8923 62.1765 98.7548 62.1765 98.6121C62.1765 98.4695 62.1243 98.332 62.0301 98.2267C61.9359 98.1214 61.8065 98.056 61.6675 98.0433Z" fill="#F1C85E"/>
</svg>
