<svg width="18" height="18" viewBox="0 0 18 18" fill="none" xmlns="http://www.w3.org/2000/svg">
<path d="M0 2.3625C0 1.0575 1.0575 0 2.3625 0H13.8375C15.1425 0 16.2 1.0575 16.2 2.3625V8.1198C15.849 7.8948 15.4719 7.70625 15.075 7.56V2.3625C15.075 2.03429 14.9446 1.71953 14.7125 1.48746C14.4805 1.25538 14.1657 1.125 13.8375 1.125H2.3625C2.03429 1.125 1.71953 1.25538 1.48746 1.48746C1.25538 1.71953 1.125 2.03429 1.125 2.3625V13.8375C1.125 14.1657 1.25538 14.4805 1.48746 14.7125C1.71953 14.9446 2.03429 15.075 2.3625 15.075H7.56C7.70625 15.4719 7.8948 15.849 8.1198 16.2H2.3625C1.73593 16.2 1.13501 15.9511 0.69196 15.508C0.248905 15.065 0 14.4641 0 13.8375V2.3625ZM1.8 6.975C1.8 6.43794 2.01335 5.92287 2.39311 5.54311C2.77287 5.16335 3.28794 4.95 3.825 4.95C4.36206 4.95 4.87713 5.16335 5.25689 5.54311C5.63665 5.92287 5.85 6.43794 5.85 6.975C5.85 7.51206 5.63665 8.02713 5.25689 8.40689C4.87713 8.78665 4.36206 9 3.825 9C3.28794 9 2.77287 8.78665 2.39311 8.40689C2.01335 8.02713 1.8 7.51206 1.8 6.975ZM3.825 6.075C3.58631 6.075 3.35739 6.16982 3.1886 6.3386C3.01982 6.50739 2.925 6.7363 2.925 6.975C2.925 7.21369 3.01982 7.44261 3.1886 7.6114C3.35739 7.78018 3.58631 7.875 3.825 7.875C4.06369 7.875 4.29261 7.78018 4.4614 7.6114C4.63018 7.44261 4.725 7.21369 4.725 6.975C4.725 6.7363 4.63018 6.50739 4.4614 6.3386C4.29261 6.16982 4.06369 6.075 3.825 6.075ZM3.825 10.35C3.28794 10.35 2.77287 10.5633 2.39311 10.9431C2.01335 11.3229 1.8 11.8379 1.8 12.375C1.8 12.9121 2.01335 13.4271 2.39311 13.8069C2.77287 14.1867 3.28794 14.4 3.825 14.4C4.36206 14.4 4.87713 14.1867 5.25689 13.8069C5.63665 13.4271 5.85 12.9121 5.85 12.375C5.85 11.8379 5.63665 11.3229 5.25689 10.9431C4.87713 10.5633 4.36206 10.35 3.825 10.35ZM2.925 12.375C2.925 12.1363 3.01982 11.9074 3.1886 11.7386C3.35739 11.5698 3.58631 11.475 3.825 11.475C4.06369 11.475 4.29261 11.5698 4.4614 11.7386C4.63018 11.9074 4.725 12.1363 4.725 12.375C4.725 12.6137 4.63018 12.8426 4.4614 13.0114C4.29261 13.1802 4.06369 13.275 3.825 13.275C3.58631 13.275 3.35739 13.1802 3.1886 13.0114C3.01982 12.8426 2.925 12.6137 2.925 12.375ZM6.75045 6.4125C6.75045 6.102 7.00245 5.85 7.31295 5.85H13.8375C13.9114 5.85 13.9845 5.86455 14.0528 5.89282C14.121 5.92109 14.183 5.96252 14.2352 6.01475C14.2875 6.06698 14.3289 6.129 14.3572 6.19724C14.3855 6.26549 14.4 6.33863 14.4 6.4125C14.4 6.48637 14.3855 6.55951 14.3572 6.62776C14.3289 6.696 14.2875 6.75801 14.2352 6.81025C14.183 6.86248 14.121 6.90391 14.0528 6.93218C13.9845 6.96045 13.9114 6.975 13.8375 6.975H7.31295C7.00245 6.975 6.75045 6.723 6.75045 6.4125ZM2.36835 2.29275C2.21917 2.29275 2.07609 2.35201 1.9706 2.4575C1.86511 2.56299 1.80585 2.70607 1.80585 2.85525C1.80585 3.00443 1.86511 3.14751 1.9706 3.253C2.07609 3.35849 2.21917 3.41775 2.36835 3.41775H13.8285C13.9777 3.41775 14.1208 3.35849 14.2262 3.253C14.3317 3.14751 14.391 3.00443 14.391 2.85525C14.391 2.70607 14.3317 2.56299 14.2262 2.4575C14.1208 2.35201 13.9777 2.29275 13.8285 2.29275H2.36835ZM18 13.05C18 15.7837 15.7837 18 13.05 18C10.3162 18 8.1 15.7837 8.1 13.05C8.1 10.3162 10.3162 8.1 13.05 8.1C15.7837 8.1 18 10.3162 18 13.05ZM13.5 9.9C13.5 9.78065 13.4526 9.66619 13.3682 9.5818C13.2838 9.49741 13.1693 9.45 13.05 9.45C12.9307 9.45 12.8162 9.49741 12.7318 9.5818C12.6474 9.66619 12.6 9.78065 12.6 9.9V12.6H9.9C9.78065 12.6 9.66619 12.6474 9.5818 12.7318C9.49741 12.8162 9.45 12.9307 9.45 13.05C9.45 13.1693 9.49741 13.2838 9.5818 13.3682C9.66619 13.4526 9.78065 13.5 9.9 13.5H12.6V16.2C12.6 16.3193 12.6474 16.4338 12.7318 16.5182C12.8162 16.6026 12.9307 16.65 13.05 16.65C13.1693 16.65 13.2838 16.6026 13.3682 16.5182C13.4526 16.4338 13.5 16.3193 13.5 16.2V13.5H16.2C16.3193 13.5 16.4338 13.4526 16.5182 13.3682C16.6026 13.2838 16.65 13.1693 16.65 13.05C16.65 12.9307 16.6026 12.8162 16.5182 12.7318C16.4338 12.6474 16.3193 12.6 16.2 12.6H13.5V9.9Z" fill="#B4CAD1"/>
</svg>
