<svg width="41" height="38" viewBox="0 0 41 38" fill="none" xmlns="http://www.w3.org/2000/svg">
<rect width="41" height="38" rx="3" fill="white"/>
<path d="M21 9C15.486 9 11 13.486 11 19C11 24.514 15.486 29 21 29C26.514 29 31 24.514 31 19C31 13.486 26.514 9 21 9ZM22 25H20V23H22V25ZM22.976 20.115C22.78 20.273 22.591 20.424 22.441 20.574C22.033 20.981 22.001 21.351 22 21.367V21.5H20V21.333C20 21.215 20.029 20.156 21.026 19.159C21.221 18.964 21.463 18.766 21.717 18.56C22.451 17.965 22.933 17.531 22.933 16.933C22.9214 16.4278 22.7125 15.9473 22.3511 15.5941C21.9896 15.241 21.5043 15.0433 20.999 15.0435C20.4937 15.0436 20.0085 15.2415 19.6472 15.5948C19.286 15.9481 19.0774 16.4288 19.066 16.934H17.066C17.066 14.765 18.831 13 21 13C23.169 13 24.934 14.765 24.934 16.934C24.934 18.531 23.755 19.484 22.976 20.115Z" fill="#0093DD"/>
</svg>
