<svg width="38" height="76" viewBox="0 0 38 76" fill="none" xmlns="http://www.w3.org/2000/svg">
<path d="M22.1191 38.8236C21.6554 40.5574 21.3481 42.331 21.2011 44.1222C21.2499 44.2128 21.241 44.5392 21.2011 44.4485C21.2011 44.7386 20.7576 44.6887 20.7576 44.3986C20.7576 44.2128 20.7576 44.027 20.7576 43.8457C19.7466 42.5584 18.2743 41.7425 17.0814 40.623C16.1246 39.7456 15.4272 38.612 15.0681 37.3505C14.0836 33.874 15.006 30.189 13.8219 26.7215C12.7976 23.7346 10.9616 21.1329 9.40953 18.4269C7.76873 15.5623 6.56252 12.5345 6.43835 9.19856C6.34523 6.62858 6.64235 3.20648 8.55809 1.28013C10.5847 -0.759538 13.0991 0.772476 14.6556 2.59004C19.1656 7.86145 21.2499 14.5561 22.0925 21.3822C22.5359 25.1623 23.037 28.9652 22.9262 32.7771C22.8557 34.8151 22.5853 36.8407 22.1191 38.8236Z" fill="#F1C85E"/>
<path d="M21.2233 45.5137C21.4681 41.9475 21.4265 38.3669 21.0991 34.8077C21.0991 34.8077 21.0991 34.8077 21.0991 34.7714C21.1568 31.8751 21.3785 28.9924 21.2676 26.0961C21.1303 22.9634 20.7132 19.8502 20.0215 16.7952C20.0215 16.7589 19.9594 16.768 19.9683 16.7952C20.5198 19.7979 20.8489 22.8388 20.9528 25.8921C21.0119 27.5299 20.9986 29.1646 20.9129 30.7964C20.8863 31.3267 20.8375 31.8615 20.8064 32.4009C19.6302 24.2758 16.7565 16.5047 12.3807 9.61556C12.3231 9.52037 12.159 9.61556 12.2166 9.71981C15.3505 14.9559 17.6736 20.6557 19.1036 26.6173C16.935 22.5153 13.6668 19.1431 11.2366 15.1997C11.2366 15.177 11.1923 15.1997 11.2011 15.2224C13.3829 19.6099 16.9661 23.0728 19.2809 27.3924C19.6801 29.1555 20.0038 30.9369 20.2477 32.7227C20.5704 35.1782 20.7451 37.6516 20.771 40.129C19.4406 37.6088 18.0792 35.1975 17.0016 32.5323C16.975 32.4598 16.873 32.5097 16.8951 32.5777C17.8131 35.3471 19.0503 38.3295 20.7754 40.691C20.7754 42.4451 20.7355 44.1992 20.6335 45.9488C20.3674 50.6219 19.5825 55.2361 19.2233 59.891C19.2241 59.9169 19.234 59.9415 19.251 59.9606C19.268 59.9797 19.2911 59.992 19.3162 59.9953C19.3413 59.9985 19.3667 59.9926 19.3878 59.9785C19.409 59.9644 19.4246 59.943 19.4317 59.9182C20.3452 55.1634 20.9437 50.3509 21.2233 45.5137Z" fill="#263238"/>
<path d="M16.3675 9.47051C16.3675 9.43878 16.3055 9.47051 16.3188 9.47051C17.1525 11.832 17.6225 14.2252 18.2256 16.6456C18.2323 16.6664 18.2461 16.6841 18.2644 16.6953C18.2828 16.7065 18.3046 16.7106 18.3256 16.7067C18.3467 16.7029 18.3657 16.6913 18.3791 16.6743C18.3925 16.6572 18.3994 16.6357 18.3986 16.6139C18.1547 14.2071 17.2988 11.7323 16.3675 9.47051Z" fill="#263238"/>
<path d="M37.5738 19.3652C37.0183 20.7501 36.3769 22.0975 35.6537 23.3992C34.1504 26.1912 32.5805 28.7476 32.2967 32.0111C32.1725 33.4615 32.1282 34.921 31.6936 36.317C31.2999 37.52 30.7335 38.6565 30.0129 39.6893C28.3854 42.1187 26.3455 44.2219 24.8377 46.7284C23.266 49.3534 22.1049 52.2132 21.3965 55.2043C21.3566 55.3675 21.1082 55.3267 21.1437 55.1635C21.1457 55.1515 21.1457 55.1393 21.1437 55.1273C21.1405 55.1154 21.1405 55.1029 21.1437 55.091C20.9042 48.1199 21.4497 41.0989 23.5295 34.4224C24.4474 31.4818 25.551 28.6051 26.8333 25.8105C27.9464 23.3901 29.3344 21.0603 31.2679 19.2518C32.5362 18.0824 35.29 15.8705 37.0949 17.0399C37.9818 17.6065 37.9153 18.4949 37.5738 19.3652Z" fill="#F1C85E"/>
<path d="M30.7223 35.1657C29.5201 37.1878 28.196 39.1315 26.7577 40.9856C26.1014 41.8694 25.4274 42.7397 24.771 43.6236C24.4606 44.0406 24.1103 44.453 23.8265 44.9018C24.0039 44.1675 24.1812 43.4377 24.3631 42.7034C25.25 39.1816 26.0881 35.6281 27.4007 32.2422C28.7443 28.9638 30.326 25.7927 32.1325 22.7555C32.1812 22.6785 32.0526 22.6196 32.0039 22.6966C30.567 25.117 29.1036 27.5374 27.893 30.0893C27.2242 31.5143 26.6407 32.9795 26.1458 34.4768C26.7006 31.2937 27.4772 28.1553 28.4695 25.0853C28.4695 25.0581 28.4384 25.0399 28.4296 25.0853C27.1294 28.1855 26.3153 31.4757 26.0172 34.8349C25.72 35.7414 25.4495 36.6479 25.1968 37.5544C24.1236 41.4525 23.179 45.3913 22.3054 49.3392C22.2889 46.7404 22.5086 44.1457 22.9617 41.5884C22.9617 41.5295 22.8863 41.5159 22.873 41.5884C22.2082 44.2511 21.9849 47.0089 22.2123 49.7471C21.8841 51.258 21.5619 52.7688 21.2455 54.2797C20.5759 57.4933 19.7555 60.7613 19.3608 64.0247C19.3612 64.0405 19.3669 64.0556 19.377 64.0675C19.3871 64.0794 19.4009 64.0874 19.416 64.0901C19.4312 64.0927 19.4468 64.0899 19.4602 64.0822C19.4736 64.0744 19.4839 64.0621 19.4894 64.0474C19.9551 62.2888 20.2389 60.4621 20.6203 58.6854C21.0016 56.9086 21.4007 55.1137 21.8043 53.3369C22.3985 50.7397 23.0194 48.1562 23.6491 45.5726C24.0925 44.6253 24.8908 43.7822 25.5027 42.989C26.1724 42.1187 26.8331 41.244 27.4983 40.3601C28.7237 38.7209 29.821 36.9856 30.7799 35.1703C30.8021 35.1522 30.7444 35.1295 30.7223 35.1657Z" fill="#263238"/>
<path d="M31.015 32.1833C29.5126 34.1411 28.2123 36.2525 27.1348 38.4836C27.1348 38.5108 27.1658 38.538 27.1835 38.5108C28.4873 36.4213 29.7689 34.3136 31.0727 32.2241C31.0771 32.1879 31.0372 32.1516 31.015 32.1833Z" fill="#263238"/>
<path d="M1.98621 25.9918C2.87312 27.5465 3.87978 29.4139 3.4984 31.2813C3.25893 32.4644 2.41193 33.4253 2.26115 34.6309C1.91525 37.2916 4.51392 39.0502 6.38975 40.3103C11.0727 43.4513 17.4762 46.2479 18.3631 52.6616C18.3942 52.8882 18.78 52.8293 18.7534 52.6072C18.7555 52.5937 18.7555 52.5799 18.7534 52.5664C18.7534 52.5664 18.7534 52.5664 18.7534 52.5301C19.3681 49.286 19.3365 45.9484 18.6603 42.7171C17.964 39.4128 16.5494 36.444 14.8864 33.5386C12.066 28.6252 9.08155 23.5941 4.82434 19.832C3.64474 18.7895 1.22789 16.9176 0.287758 19.2655C-0.652375 21.6133 0.921905 24.0745 1.98621 25.9918Z" fill="#F1C85E"/>
<path d="M6.27013 36.3896C9.37434 39.8253 14.31 41.7516 16.9841 45.5998C15.4923 39.7419 12.6711 34.3256 8.74906 29.7901C8.73606 29.7675 8.73052 29.7412 8.73325 29.7151C8.73598 29.689 8.74684 29.6645 8.76423 29.6452C8.78162 29.6259 8.80462 29.6128 8.82984 29.6079C8.85505 29.603 8.88115 29.6065 8.90427 29.6179C11.7643 32.4591 14.05 35.8473 15.6315 39.5896C14.8939 36.9801 13.9246 34.4449 12.7358 32.0156C12.7274 31.9972 12.7261 31.9762 12.7321 31.9568C12.738 31.9374 12.7509 31.921 12.7681 31.9108C12.7853 31.9006 12.8056 31.8973 12.8251 31.9016C12.8445 31.9059 12.8617 31.9175 12.8732 31.934C14.3396 34.5869 15.3872 37.4596 15.9774 40.4462C19.4985 49.1579 19.8267 59.3743 19.0817 68.5483C19.0817 68.5759 19.0709 68.6025 19.0518 68.622C19.0327 68.6416 19.0067 68.6525 18.9797 68.6525C18.9526 68.6525 18.9267 68.6416 18.9075 68.622C18.8884 68.6025 18.8777 68.5759 18.8777 68.5483C19.0817 61.2962 18.9664 53.9488 17.2723 46.8825C17.2369 46.7375 17.197 46.5924 17.1615 46.4293C14.2524 42.2865 9.33886 40.3692 6.177 36.4349C6.18587 36.4168 6.24352 36.3533 6.27013 36.3896Z" fill="#263238"/>
<path d="M5.55156 33.4388C7.18349 34.9663 8.78438 36.5301 10.4296 38.0576C10.4296 38.0576 10.4296 38.1029 10.4296 38.0893C8.58407 36.8214 6.92123 35.2957 5.48948 33.5567C5.40078 33.4706 5.48504 33.3754 5.55156 33.4388Z" fill="#263238"/>
<path d="M5.29423 26.8168C6.73641 29.2336 8.36776 31.527 10.1723 33.6746C10.1723 33.7018 10.1723 33.7425 10.1279 33.7154C8.10614 31.7476 6.43981 29.4306 5.20554 26.8711C5.20199 26.8595 5.20236 26.847 5.20661 26.8356C5.21086 26.8242 5.21873 26.8146 5.22896 26.8083C5.23919 26.802 5.25119 26.7995 5.26303 26.801C5.27487 26.8025 5.28586 26.8081 5.29423 26.8168Z" fill="#263238"/>
<path d="M12.6338 75.0208H26.9043L24.9841 55.3947H14.8289L12.6338 75.0208Z" fill="#455A64"/>
<path d="M14.4741 58.5811H25.299L24.9841 55.3947H14.8289L14.4741 58.5811Z" fill="#263238"/>
<path d="M13.0815 56.3511H26.4607V53.2191H13.0815V56.3511Z" fill="#455A64"/>
</svg>
