<svg width="21" height="21" viewBox="0 0 21 21" fill="none" xmlns="http://www.w3.org/2000/svg">
<path d="M13.8571 13.3822C13.8571 12.4267 11.1709 11.6527 7.85714 11.6527M13.8571 13.3822C13.8571 14.3378 11.1709 15.1117 7.85714 15.1117C4.54343 15.1117 1.85714 14.3378 1.85714 13.3822M13.8571 13.3822V17.6515C13.8571 18.6365 11.1709 19.4355 7.85714 19.4355C4.54343 19.4355 1.85714 18.6374 1.85714 17.6515V13.3822M13.8571 13.3822H1.85714M13.8571 13.3822C17.1349 13.3822 19.8571 12.5287 19.8571 11.6527V3.0051M13.8571 13.3822L16.8571 8.19366L19.8571 3.0051M7.85714 11.6527C4.54343 11.6527 1.85714 12.4267 1.85714 13.3822M7.85714 11.6527C4.07028 11.6527 1 10.7992 1 9.92318V5.59938M7.85714 11.6527L1 5.59938M1 5.59938C1 4.64382 4.07028 3.86986 7.85714 3.86986V7.3289M1 5.59938C1 6.55494 4.07028 7.3289 7.85714 7.3289M7.85714 7.3289C7.85714 8.2049 10.6454 9.05842 13.9231 9.05842C17.2 9.05842 19.8571 8.2049 19.8571 7.3289M19.8571 3.0051C19.8571 2.04953 17.2 1.27557 13.9231 1.27557C10.6454 1.27557 7.98914 2.04953 7.98914 3.0051M19.8571 3.0051C19.8571 3.96066 17.2 4.73462 13.9231 4.73462C10.6463 4.73462 7.98914 3.96066 7.98914 3.0051M7.98914 3.0051V11.7963" stroke="#B4CAD1" stroke-width="1.5"/>
</svg>
