<svg width="16" height="17" viewBox="0 0 16 17" fill="none" xmlns="http://www.w3.org/2000/svg">
<path d="M15.9078 6.72977L15.2761 4.69681C15.2079 4.46186 15.0935 4.24317 14.9397 4.05379C14.7859 3.86441 14.5958 3.70822 14.3809 3.59453C14.166 3.48085 13.9306 3.412 13.6887 3.39209C13.4469 3.37218 13.2035 3.40162 12.9732 3.47865L12.7013 3.56739C12.4883 3.63842 12.2615 3.65644 12.0401 3.61992C11.8187 3.5834 11.6094 3.49342 11.4299 3.35764L11.3419 3.29311C11.1668 3.15788 11.0256 2.98302 10.9298 2.78263C10.834 2.58225 10.7861 2.36194 10.7902 2.13949V1.9136C10.7941 1.407 10.5985 0.919545 10.2465 0.558299C10.079 0.387638 9.87978 0.252035 9.66022 0.159278C9.44066 0.0665215 9.20511 0.0184389 8.96708 0.0177917H6.92805C6.43882 0.02417 5.9719 0.225276 5.62895 0.577324C5.28599 0.929373 5.09477 1.40386 5.09692 1.89747V2.09108C5.09615 2.32525 5.04331 2.55626 4.94228 2.76709C4.84126 2.97792 4.69463 3.16319 4.5132 3.30924L4.40925 3.38991C4.20882 3.54289 3.97439 3.64416 3.72634 3.68493C3.47829 3.7257 3.22412 3.70474 2.98593 3.62386C2.76716 3.54749 2.53531 3.51669 2.30441 3.53333C2.0735 3.54997 1.84835 3.6137 1.64257 3.72067C1.42831 3.82796 1.23823 3.97858 1.08416 4.16317C0.930088 4.34775 0.815318 4.56236 0.746992 4.79362L0.0913046 6.89111C-0.0607492 7.36401 -0.0217547 7.87834 0.19982 8.32241C0.421395 8.76648 0.807661 9.10443 1.27474 9.26289H1.40268C1.61814 9.34435 1.81153 9.47593 1.96714 9.64694C2.12274 9.81794 2.23619 10.0236 2.29825 10.2471L2.34623 10.3762C2.43537 10.6231 2.46518 10.8879 2.43321 11.1488C2.40124 11.4096 2.3084 11.6591 2.16232 11.8767C1.86663 12.283 1.74191 12.7906 1.81529 13.2891C1.88866 13.7877 2.1542 14.2368 2.55413 14.5389L4.20934 15.8055C4.52276 16.0354 4.90136 16.157 5.28883 16.1523C5.39253 16.1626 5.49698 16.1626 5.60068 16.1523C5.84065 16.1055 6.06864 16.0098 6.27073 15.8711C6.47282 15.7324 6.64478 15.5536 6.77612 15.3456L6.96003 15.0794C7.08904 14.8927 7.25975 14.7392 7.45837 14.6313C7.65699 14.5234 7.87798 14.4641 8.10349 14.4582C8.33982 14.4523 8.57378 14.507 8.78352 14.617C8.99326 14.7271 9.17195 14.8889 9.30292 15.0875L9.39887 15.2246C9.53521 15.4293 9.71163 15.6037 9.91728 15.737C10.1229 15.8703 10.3535 15.9598 10.5947 15.9998C10.8359 16.0399 11.0826 16.0297 11.3198 15.9699C11.557 15.9101 11.7795 15.802 11.9736 15.6522L13.5969 14.426C13.9807 14.1252 14.2359 13.6878 14.3102 13.2033C14.3846 12.7188 14.2724 12.2239 13.9967 11.8202L13.7888 11.5137C13.6638 11.3188 13.5819 11.099 13.5488 10.8693C13.5157 10.6395 13.5321 10.4053 13.5969 10.1826C13.6629 9.94413 13.7855 9.7255 13.9541 9.54559C14.1227 9.36568 14.3322 9.22989 14.5644 9.14995L14.7243 9.09348C15.1871 8.93148 15.5693 8.5943 15.7901 8.15321C16.0109 7.71211 16.0531 7.20167 15.9078 6.72977ZM7.99954 10.9086C7.44601 10.9086 6.90492 10.743 6.44468 10.4328C5.98444 10.1225 5.62573 9.68153 5.41391 9.16559C5.20208 8.64966 5.14666 8.08194 5.25465 7.53422C5.36263 6.98651 5.62918 6.4834 6.02058 6.08852C6.41198 5.69364 6.91066 5.42472 7.45354 5.31578C7.99643 5.20683 8.55915 5.26274 9.07054 5.47645C9.58193 5.69016 10.019 6.05206 10.3265 6.51639C10.6341 6.98072 10.7982 7.52662 10.7982 8.08507C10.7982 8.83392 10.5033 9.5521 9.97849 10.0816C9.45364 10.6111 8.74179 10.9086 7.99954 10.9086Z" fill="#B4CAD1"/>
</svg>
