<svg width="336" height="176" viewBox="0 0 336 176" fill="none" xmlns="http://www.w3.org/2000/svg">
<mask id="mask0_12_1008" style="mask-type:alpha" maskUnits="userSpaceOnUse" x="0" y="0" width="336" height="176">
<rect width="336" height="176" rx="10" fill="white"/>
<mask id="mask1_12_1008" style="mask-type:alpha" maskUnits="userSpaceOnUse" x="0" y="0" width="336" height="176">
<rect width="336" height="176" rx="10" fill="white"/>
</mask>
<g mask="url(#mask1_12_1008)">
</g>
</mask>
<g mask="url(#mask0_12_1008)">
<path d="M411.141 283.763C430.136 265.124 442.353 236.095 442.353 203.501C442.353 147.251 406.128 101.747 361.298 101.671C316.408 101.595 280 147.2 280 203.501C280 235.382 291.669 263.825 309.954 282.49C310.664 283.203 311.699 283.05 312.268 282.159L320.264 269.3C320.811 268.434 320.69 267.186 320.02 266.473C318.376 264.792 316.793 262.985 315.271 261.075C309.338 253.655 304.609 244.86 301.349 235.178C297.94 225.171 296.235 214.501 296.235 203.501C296.235 192.501 297.94 181.831 301.329 171.798C304.596 162.097 309.284 153.388 315.251 145.902C321.217 138.415 328.158 132.533 335.89 128.434C343.906 124.181 352.409 122.042 361.176 122.042C369.944 122.042 378.447 124.181 386.443 128.434C394.175 132.533 401.115 138.415 407.082 145.902C413.048 153.388 417.736 162.097 421.004 171.798C424.393 181.831 426.097 192.501 426.097 203.501C426.097 214.501 424.393 225.171 421.004 235.203C417.744 244.886 413.015 253.681 407.082 261.1C405.194 263.468 403.206 265.684 401.136 267.721L392.876 254.454C392.689 254.151 392.437 253.92 392.151 253.788C391.864 253.656 391.553 253.628 391.254 253.708C390.955 253.788 390.68 253.972 390.461 254.239C390.242 254.506 390.087 254.846 390.014 255.218L381.978 296.52C381.734 297.794 382.506 299.041 383.541 299.041L417.432 299.245C418.791 299.245 419.563 297.284 418.71 295.96L411.141 283.763Z" fill="#F0FAFF"/>
</g>
</svg>
