<svg width="83" height="83" viewBox="0 0 83 83" fill="none" xmlns="http://www.w3.org/2000/svg">
<path d="M41.5 0C33.2921 0 25.2685 2.43393 18.4438 6.99401C11.6192 11.5541 6.30005 18.0355 3.15902 25.6186C0.0179812 33.2018 -0.803857 41.546 0.797429 49.5962C2.39872 57.6464 6.35121 65.041 12.1551 70.8449C17.959 76.6488 25.3536 80.6013 33.4038 82.2026C41.454 83.8039 49.7982 82.982 57.3814 79.841C64.9645 76.6999 71.4459 71.3808 76.006 64.5561C80.5661 57.7315 83 49.7079 83 41.5C83 30.4935 78.6277 19.9378 70.8449 12.1551C63.0622 4.37231 52.5065 0 41.5 0ZM68.6047 27.5716L34.5228 61.6275L14.3953 41.5C13.7074 40.8121 13.321 39.8791 13.321 38.9062C13.321 37.9334 13.7074 37.0004 14.3953 36.3125C15.0832 35.6246 16.0162 35.2381 16.9891 35.2381C17.9619 35.2381 18.8949 35.6246 19.5828 36.3125L34.5747 51.3044L63.4691 22.4359C63.8097 22.0953 64.2141 21.8251 64.6591 21.6408C65.1041 21.4564 65.5811 21.3616 66.0628 21.3616C66.5445 21.3616 67.0215 21.4564 67.4665 21.6408C67.9116 21.8251 68.3159 22.0953 68.6566 22.4359C68.9972 22.7765 69.2674 23.1809 69.4517 23.626C69.6361 24.071 69.7309 24.548 69.7309 25.0297C69.7309 25.5114 69.6361 25.9884 69.4517 26.4334C69.2674 26.8784 68.9972 27.2828 68.6566 27.6234L68.6047 27.5716Z" fill="#7EE25B"/>
</svg>
