<svg width="18" height="13" viewBox="0 0 18 13" fill="none" xmlns="http://www.w3.org/2000/svg">
<path d="M2.7 5.30357C3.69281 5.30357 4.5 4.5108 4.5 3.53571C4.5 2.56063 3.69281 1.76786 2.7 1.76786C1.70719 1.76786 0.9 2.56063 0.9 3.53571C0.9 4.5108 1.70719 5.30357 2.7 5.30357ZM15.3 5.30357C16.2928 5.30357 17.1 4.5108 17.1 3.53571C17.1 2.56063 16.2928 1.76786 15.3 1.76786C14.3072 1.76786 13.5 2.56063 13.5 3.53571C13.5 4.5108 14.3072 5.30357 15.3 5.30357ZM16.2 6.1875H14.4C13.905 6.1875 13.4578 6.38362 13.1316 6.70128C14.265 7.31175 15.0694 8.4139 15.2437 9.72321H17.1C17.5978 9.72321 18 9.32821 18 8.83929V7.95536C18 6.98027 17.1928 6.1875 16.2 6.1875ZM9 6.1875C10.7409 6.1875 12.15 4.8036 12.15 3.09375C12.15 1.3839 10.7409 0 9 0C7.25906 0 5.85 1.3839 5.85 3.09375C5.85 4.8036 7.25906 6.1875 9 6.1875ZM11.16 7.07143H10.9266C10.3416 7.34766 9.69187 7.51339 9 7.51339C8.30812 7.51339 7.66125 7.34766 7.07344 7.07143H6.84C5.05125 7.07143 3.6 8.49676 3.6 10.2536V11.0491C3.6 11.7811 4.20469 12.375 4.95 12.375H13.05C13.7953 12.375 14.4 11.7811 14.4 11.0491V10.2536C14.4 8.49676 12.9487 7.07143 11.16 7.07143ZM4.86844 6.70128C4.54219 6.38362 4.095 6.1875 3.6 6.1875H1.8C0.807187 6.1875 0 6.98027 0 7.95536V8.83929C0 9.32821 0.402187 9.72321 0.9 9.72321H2.75344C2.93062 8.4139 3.735 7.31175 4.86844 6.70128Z" fill="#B4CAD1"/>
</svg>
